<svg xmlns="http://www.w3.org/2000/svg" width="136" height="40" viewBox="0 0 136 40" fill="none">
  <g clip-path="url(#clip0_2159_6332)">
    <path fill-rule="evenodd" clip-rule="evenodd" d="M130.498 40H5.50184C2.74512 40 0.5 37.7456 0.5 35V5C0.5 2.24439 2.74512 0 5.50184 0H130.498C133.252 0 135.5 2.24439 135.5 5V35C135.5 37.7456 133.252 40 130.498 40Z" fill="black"/>
    <path fill-rule="evenodd" clip-rule="evenodd" d="M130.498 0.800499C132.81 0.800499 134.703 2.68828 134.703 5V35C134.703 37.3117 132.823 39.1995 130.498 39.1995H5.50184C3.18967 39.1995 1.29721 37.3117 1.29721 35V5C1.29721 2.68828 3.17725 0.800499 5.50184 0.800499H130.498ZM130.498 0H5.50184C2.74512 0 0.5 2.25436 0.5 5V35C0.5 37.7556 2.74512 40 5.50184 40H130.498C133.252 40 135.5 37.7556 135.5 35V5C135.5 2.25436 133.252 0 130.498 0Z" fill="#A6A6A6"/>
    <path d="M71.6183 13.232C70.7168 13.232 69.9568 12.9153 69.3558 12.2918C68.7598 11.6858 68.427 10.8504 68.4419 9.99755C68.4419 9.08732 68.7498 8.31675 69.3558 7.70577C69.9543 7.08233 70.7143 6.76562 71.6158 6.76562C72.5074 6.76562 73.2673 7.08233 73.8783 7.70577C74.4843 8.3367 74.7922 9.10727 74.7922 9.99755C74.7823 10.9103 74.4743 11.6808 73.8783 12.2893C73.2798 12.9177 72.5198 13.232 71.6183 13.232ZM44.7938 13.232C43.9121 13.232 43.1472 12.9202 42.5214 12.3043C41.9005 11.6908 41.5851 10.9153 41.5851 10C41.5851 9.08483 41.9005 8.30927 42.5214 7.6958C43.1348 7.07984 43.8997 6.76812 44.7938 6.76812C45.2309 6.76812 45.6556 6.8554 46.0629 7.03246C46.4627 7.20453 46.7881 7.43894 47.029 7.72572L47.0886 7.79804L46.4155 8.46139L46.346 8.37909C45.966 7.92523 45.4569 7.70328 44.7839 7.70328C44.1828 7.70328 43.6588 7.91774 43.2267 8.34169C42.7921 8.76812 42.571 9.32672 42.571 10.0025C42.571 10.6783 42.7921 11.2369 43.2267 11.6634C43.6588 12.0873 44.1828 12.3018 44.7839 12.3018C45.4246 12.3018 45.9635 12.0873 46.3832 11.6634C46.6316 11.414 46.7856 11.0649 46.8402 10.6235H44.682V9.69081H47.7666L47.779 9.7756C47.8013 9.93271 47.8237 10.0948 47.8237 10.2444C47.8237 11.1048 47.5654 11.8005 47.0538 12.3143C46.4726 12.9227 45.7127 13.232 44.7938 13.232ZM80.4596 13.0998H79.5084L76.5953 8.41899L76.6201 9.26188V13.0973H75.6689V6.90029H76.7542L76.784 6.94767L79.5233 11.3566L79.4985 10.5162V6.90029H80.4596V13.0998ZM64.4707 13.0998H63.5071V7.83296H61.8357V6.90029H66.1396V7.83296H64.4682V13.0998H64.4707ZM61.0509 13.0998H60.0898V6.90029H61.0509V13.0998ZM55.6493 13.0998H54.6881V7.83296H53.0167V6.90029H57.3207V7.83296H55.6493V13.0998ZM52.4083 13.0898H48.7227V6.90029H52.4083V7.83296H49.6863V9.5337H52.1425V10.4564H49.6863V12.1571H52.4083V13.0898ZM70.0611 11.6509C70.4908 12.0823 71.0123 12.2993 71.6183 12.2993C72.2417 12.2993 72.7508 12.0873 73.1755 11.6509C73.5977 11.227 73.8112 10.6709 73.8112 10C73.8112 9.32922 73.5977 8.77061 73.1779 8.34917C72.7483 7.91774 72.2243 7.70079 71.6208 7.70079C70.9974 7.70079 70.4883 7.91276 70.0661 8.34917C69.6439 8.77311 69.4303 9.32922 69.4303 10C69.4303 10.6709 69.6414 11.2295 70.0611 11.6509Z" fill="white"/>
    <path fill-rule="evenodd" clip-rule="evenodd" d="M68.3526 21.7554C66.0056 21.7554 64.1032 23.5434 64.1032 26.0098C64.1032 28.4537 66.018 30.2641 68.3526 30.2641C70.6995 30.2641 72.6019 28.4636 72.6019 26.0098C72.6019 23.5434 70.6995 21.7554 68.3526 21.7554ZM68.3526 28.5784C67.0686 28.5784 65.9634 27.511 65.9634 25.9998C65.9634 24.4661 67.0711 23.4213 68.3526 23.4213C69.6366 23.4213 70.7417 24.4661 70.7417 25.9998C70.7442 27.521 69.6366 28.5784 68.3526 28.5784ZM59.0815 21.7554C56.7346 21.7554 54.8322 23.5434 54.8322 26.0098C54.8322 28.4537 56.747 30.2641 59.0815 30.2641C61.4285 30.2641 63.3309 28.4636 63.3309 26.0098C63.3309 23.5434 61.426 21.7554 59.0815 21.7554ZM59.0815 28.5784C57.7975 28.5784 56.6924 27.511 56.6924 25.9998C56.6924 24.4661 57.8 23.4213 59.0815 23.4213C60.3655 23.4213 61.4707 24.4661 61.4707 25.9998C61.4707 27.521 60.3655 28.5784 59.0815 28.5784ZM48.0496 23.0547V24.8552H52.3536C52.222 25.8651 51.8892 26.6108 51.3801 27.122C50.7492 27.7554 49.7757 28.4437 48.0596 28.4437C45.4146 28.4437 43.3458 26.2991 43.3458 23.6432C43.3458 20.9873 45.4146 18.8427 48.0596 18.8427C49.4876 18.8427 50.5282 19.4088 51.3006 20.132L52.5722 18.8552C51.4993 17.8227 50.0712 17.0322 48.0695 17.0322C44.4411 17.0322 41.3962 19.9998 41.3962 23.6332C41.3962 27.2766 44.4386 30.2342 48.0695 30.2342C50.029 30.2342 51.4993 29.5908 52.6616 28.3789C53.8462 27.1893 54.2212 25.511 54.2212 24.1569C54.2212 23.7355 54.1889 23.3564 54.1219 23.0347H48.0472C48.0496 23.0322 48.0496 23.0547 48.0496 23.0547ZM93.173 24.4562C92.8179 23.5011 91.745 21.7454 89.5446 21.7454C87.3641 21.7454 85.5511 23.4686 85.5511 25.9998C85.5511 28.3888 87.3442 30.2542 89.7557 30.2542C91.6929 30.2542 92.8204 29.0646 93.2848 28.3664L91.8468 27.3988C91.37 28.1095 90.7069 28.5759 89.7656 28.5759C88.8144 28.5759 88.1488 28.142 87.7068 27.2866L93.3717 24.93C93.3717 24.9325 93.173 24.4562 93.173 24.4562ZM87.3963 25.8776C87.3516 24.2342 88.6679 23.3988 89.6092 23.3988C90.3517 23.3988 90.9701 23.7654 91.1813 24.2991L87.3963 25.8776ZM82.7943 29.9998H84.6545V17.5011H82.7943V29.9998ZM79.7396 22.7006H79.6725C79.2528 22.1993 78.4556 21.7454 77.4373 21.7454C75.3239 21.7454 73.3768 23.6133 73.3768 26.0123C73.3768 28.4013 75.3139 30.2467 77.4373 30.2467C78.4432 30.2467 79.2528 29.7903 79.6725 29.2791H79.7396V29.8901C79.7396 31.5135 78.8753 32.3888 77.4821 32.3888C76.3421 32.3888 75.6343 31.5659 75.3462 30.8776L73.7294 31.5559C74.1939 32.6781 75.4331 34.0671 77.4796 34.0671C79.6601 34.0671 81.5079 32.7779 81.5079 29.6332V21.9998H79.7495V22.7006C79.752 22.7006 79.7396 22.7006 79.7396 22.7006ZM77.6037 28.5784C76.3198 28.5784 75.2469 27.5011 75.2469 26.0123C75.2469 24.511 76.3198 23.4237 77.6037 23.4237C78.8753 23.4237 79.8613 24.5235 79.8613 26.0123C79.8737 27.5011 78.8778 28.5784 77.6037 28.5784ZM101.883 17.5011H97.4348V29.9998H99.295V25.2666H101.885C103.944 25.2666 105.968 23.7679 105.968 21.3888C105.968 19.0098 103.952 17.5011 101.883 17.5011ZM101.937 23.521H99.2925V19.2317H101.937C103.331 19.2317 104.118 20.3863 104.118 21.3764C104.118 22.3564 103.321 23.521 101.937 23.521ZM113.424 21.733C112.073 21.733 110.68 22.334 110.103 23.6432L111.752 24.3315C112.108 23.6432 112.758 23.4088 113.446 23.4088C114.41 23.4088 115.383 23.9873 115.406 25.0198V25.1519C115.073 24.9624 114.343 24.6731 113.469 24.6731C111.688 24.6731 109.882 25.6507 109.882 27.4836C109.882 29.1619 111.343 30.2392 112.969 30.2392C114.219 30.2392 114.906 29.6731 115.336 29.0173H115.403V29.9848H117.196V25.1968C117.196 22.9674 115.547 21.733 113.424 21.733ZM113.19 28.5784C112.582 28.5784 111.73 28.2791 111.73 27.511C111.73 26.5434 112.793 26.1769 113.699 26.1769C114.519 26.1769 114.907 26.3539 115.393 26.5983C115.259 27.7205 114.315 28.5684 113.19 28.5784ZM123.738 21.9998L121.602 27.4213H121.535L119.322 21.9998H117.32L120.641 29.5784L118.749 33.7903H120.686L125.794 21.9998H123.738ZM106.994 29.9998H108.854V17.5011H106.994V29.9998Z" fill="white"/>
    <path fill-rule="evenodd" clip-rule="evenodd" d="M10.8911 7.53315C10.603 7.84487 10.4366 8.32118 10.4366 8.94462V31.0568C10.4366 31.6803 10.603 32.1566 10.9011 32.4558L10.9781 32.5232L23.3163 20.1342V19.8573L10.9681 7.46582L10.8911 7.53315Z" fill="url(#paint0_linear_2159_6332)"/>
    <path fill-rule="evenodd" clip-rule="evenodd" d="M27.4214 24.2772L23.3062 20.1451V19.8558L27.4214 15.7236L27.5108 15.7785L32.3786 18.5566C33.7718 19.3446 33.7718 20.6463 32.3786 21.4443L27.5108 24.2224L27.4214 24.2772Z" fill="url(#paint1_linear_2159_6332)"/>
    <path fill-rule="evenodd" clip-rule="evenodd" d="M27.5109 24.2219L23.3063 20L10.8911 32.4663C11.3456 32.9551 12.108 33.01 12.9599 32.5337L27.5109 24.2219Z" fill="url(#paint2_linear_2159_6332)"/>
    <path fill-rule="evenodd" clip-rule="evenodd" d="M27.5109 15.7784L12.9599 7.47918C12.108 6.9904 11.3431 7.05774 10.8911 7.54651L23.3063 20.0004L27.5109 15.7784Z" fill="url(#paint3_linear_2159_6332)"/>
    <path opacity="0.2" fill-rule="evenodd" clip-rule="evenodd" d="M27.4216 24.1318L12.9698 32.3762C12.1626 32.8425 11.4424 32.8101 10.978 32.3862L10.901 32.4635L10.978 32.5308C11.4424 32.9523 12.1626 32.9872 12.9698 32.5208L27.5209 24.2216L27.4216 24.1318Z" fill="black"/>
    <path opacity="0.12" fill-rule="evenodd" clip-rule="evenodd" d="M32.3786 21.2993L27.4091 24.1322L27.4985 24.2219L32.3662 21.4439C33.0641 21.0449 33.4068 20.5212 33.4068 20C33.3646 20.4788 33.0094 20.9327 32.3786 21.2993Z" fill="black"/>
    <path opacity="0.25" fill-rule="evenodd" clip-rule="evenodd" d="M12.9599 7.62329L32.3787 18.7006C33.0095 19.0572 33.3646 19.5235 33.4193 19.9999C33.4193 19.4787 33.0766 18.955 32.3787 18.556L12.9599 7.47866C11.5667 6.67816 10.4366 7.34649 10.4366 8.94499V9.08963C10.4366 7.48863 11.5667 6.83277 12.9599 7.62329Z" fill="white"/>
  </g>
  <defs>
    <linearGradient id="paint0_linear_2159_6332" x1="22.2095" y1="8.70606" x2="2.43514" y2="13.9534" gradientUnits="userSpaceOnUse">
      <stop stop-color="#00A0FF"/>
      <stop offset="0.00657" stop-color="#00A1FF"/>
      <stop offset="0.2601" stop-color="#00BEFF"/>
      <stop offset="0.5122" stop-color="#00D2FF"/>
      <stop offset="0.7604" stop-color="#00DFFF"/>
      <stop offset="1" stop-color="#00E3FF"/>
    </linearGradient>
    <linearGradient id="paint1_linear_2159_6332" x1="34.1955" y1="20.0005" x2="10.0978" y2="20.0005" gradientUnits="userSpaceOnUse">
      <stop stop-color="#FFE000"/>
      <stop offset="0.4087" stop-color="#FFBD00"/>
      <stop offset="0.7754" stop-color="#FFA500"/>
      <stop offset="1" stop-color="#FF9C00"/>
    </linearGradient>
    <linearGradient id="paint2_linear_2159_6332" x1="25.2246" y1="22.2973" x2="9.26185" y2="49.0538" gradientUnits="userSpaceOnUse">
      <stop stop-color="#FF3A44"/>
      <stop offset="1" stop-color="#C31162"/>
    </linearGradient>
    <linearGradient id="paint3_linear_2159_6332" x1="7.76483" y1="0.179171" x2="14.8865" y2="12.1291" gradientUnits="userSpaceOnUse">
      <stop stop-color="#32A071"/>
      <stop offset="0.0685" stop-color="#2DA771"/>
      <stop offset="0.4762" stop-color="#15CF74"/>
      <stop offset="0.8009" stop-color="#06E775"/>
      <stop offset="1" stop-color="#00F076"/>
    </linearGradient>
    <clipPath id="clip0_2159_6332">
      <rect width="135" height="40" fill="white" transform="translate(0.5)"/>
    </clipPath>
  </defs>
</svg>