<svg xmlns="http://www.w3.org/2000/svg" width="121" height="40" viewBox="0 0 121 40" fill="none">
  <path d="M110.944 0.00013H10.0614C9.69372 0.00013 9.3304 0.00013 8.96364 0.00213C8.65663 0.00413 8.35207 0.00994 8.04211 0.01483C7.36874 0.0227318 6.69695 0.0818063 6.03259 0.19154C5.36915 0.303663 4.7265 0.515046 4.12637 0.81854C3.52697 1.1246 2.97929 1.5223 2.50318 1.9972C2.02457 2.47077 1.62561 3.01815 1.32165 3.61829C1.01685 4.21724 0.805496 4.85907 0.694896 5.52161C0.583244 6.18332 0.523163 6.85265 0.515193 7.52361C0.505886 7.83021 0.504904 8.13783 0.5 8.44447V31.5587C0.504904 31.8692 0.505886 32.17 0.515193 32.4806C0.523166 33.1516 0.583246 33.8209 0.694896 34.4825C0.80519 35.1455 1.01655 35.7877 1.32165 36.3868C1.62548 36.985 2.02449 37.5302 2.50318 38.0011C2.97748 38.4781 3.52552 38.8761 4.12637 39.1798C4.7265 39.4841 5.36908 39.6968 6.03259 39.8106C6.69707 39.9195 7.36879 39.9786 8.04211 39.9874C8.35207 39.9942 8.65663 39.9981 8.96364 39.9981C9.33039 40.0001 9.69374 40.0001 10.0614 40.0001H110.944C111.304 40.0001 111.671 40.0001 112.031 39.9981C112.337 39.9981 112.65 39.9942 112.955 39.9874C113.628 39.9791 114.298 39.92 114.961 39.8106C115.627 39.696 116.272 39.4834 116.875 39.1798C117.475 38.8759 118.022 38.478 118.496 38.0011C118.974 37.5284 119.374 36.9836 119.681 36.3868C119.984 35.7872 120.193 35.1451 120.302 34.4825C120.414 33.8208 120.476 33.1516 120.488 32.4806C120.492 32.17 120.492 31.8692 120.492 31.5587C120.5 31.1954 120.5 30.8341 120.5 30.4649V9.53626C120.5 9.17005 120.5 8.80677 120.492 8.44447C120.492 8.13783 120.492 7.83021 120.488 7.52357C120.476 6.85255 120.414 6.18337 120.302 5.52157C120.193 4.85941 119.984 4.21763 119.681 3.61825C119.062 2.41533 118.081 1.43616 116.875 0.81845C116.272 0.515697 115.627 0.30437 114.961 0.19145C114.298 0.0812328 113.628 0.0221378 112.955 0.01469C112.65 0.00981 112.337 0.00395 112.031 0.002C111.671 0 111.304 0 110.944 0V0.00013Z" fill="#A6A6A6"/>
  <path d="M8.96856 39.125C8.66303 39.125 8.36487 39.1211 8.06174 39.1143C7.43376 39.1061 6.80725 39.0516 6.18735 38.9512C5.60932 38.8519 5.04937 38.6673 4.52596 38.4033C4.00735 38.1415 3.53433 37.7983 3.12504 37.3867C2.70981 36.98 2.36412 36.5082 2.10166 35.9902C1.83631 35.4688 1.65267 34.9099 1.55714 34.333C1.45397 33.7131 1.39816 33.0863 1.39017 32.458C1.38381 32.2471 1.37549 31.5449 1.37549 31.5449V8.44434C1.37549 8.44434 1.38435 7.75293 1.39022 7.5498C1.39787 6.92248 1.45336 6.29665 1.55621 5.67773C1.65192 5.09925 1.8357 4.53875 2.1012 4.01563C2.3627 3.49794 2.70647 3.02586 3.11919 2.61768C3.53145 2.20562 4.00597 1.8606 4.52547 1.59521C5.04767 1.33209 5.60657 1.14873 6.18343 1.05127C6.80537 0.949836 7.43405 0.894996 8.0642 0.88721L8.96906 0.875H112.026L112.942 0.8877C113.566 0.895099 114.189 0.94945 114.805 1.05029C115.388 1.14898 115.953 1.33362 116.481 1.59814C117.522 2.13299 118.369 2.97916 118.903 4.01807C119.164 4.53758 119.345 5.09351 119.439 5.66699C119.544 6.29099 119.602 6.92174 119.614 7.5542C119.617 7.8374 119.617 8.1416 119.617 8.44434C119.625 8.81934 119.625 9.17627 119.625 9.53613V30.4648C119.625 30.8281 119.625 31.1826 119.617 31.54C119.617 31.8652 119.617 32.1631 119.613 32.4697C119.601 33.0909 119.544 33.7104 119.441 34.3232C119.348 34.9043 119.165 35.4675 118.9 35.9932C118.636 36.5056 118.292 36.9733 117.881 37.3789C117.472 37.7927 116.998 38.1379 116.478 38.4014C115.951 38.6674 115.387 38.8527 114.805 38.9512C114.186 39.0522 113.559 39.1067 112.931 39.1143C112.637 39.1211 112.33 39.125 112.031 39.125L110.944 39.127L8.96856 39.125Z" fill="black"/>
  <path d="M25.3384 20.3013C25.3492 19.4666 25.5715 18.6483 25.9847 17.9223C26.3978 17.1964 26.9885 16.5864 27.7015 16.1492C27.2485 15.5041 26.6509 14.9731 25.9561 14.5986C25.2614 14.224 24.4886 14.0162 23.6992 13.9916C22.0152 13.8153 20.3827 14.9964 19.5246 14.9964C18.6499 14.9964 17.3287 14.0091 15.906 14.0383C14.9857 14.0679 14.0889 14.3348 13.3028 14.8128C12.5167 15.2909 11.8682 15.9638 11.4205 16.7661C9.48105 20.1145 10.9277 25.0356 12.7855 27.7422C13.715 29.0676 14.8013 30.548 16.2228 30.4955C17.6137 30.438 18.1332 29.611 19.8122 29.611C21.4756 29.611 21.963 30.4955 23.4133 30.4621C24.9058 30.438 25.8462 29.1309 26.7431 27.793C27.411 26.8486 27.9249 25.8049 28.2658 24.7005C27.3987 24.3347 26.6587 23.7226 26.1381 22.9403C25.6175 22.158 25.3394 21.2402 25.3384 20.3013Z" fill="white"/>
  <path d="M22.5991 12.2113C23.4129 11.2371 23.8138 9.98494 23.7167 8.7207C22.4734 8.85092 21.3249 9.44348 20.5001 10.3803C20.0968 10.838 19.788 11.3704 19.5912 11.9472C19.3944 12.524 19.3135 13.1337 19.3532 13.7417C19.9751 13.7481 20.5903 13.6137 21.1525 13.3486C21.7148 13.0835 22.2094 12.6946 22.5991 12.2113Z" fill="white"/>
  <path d="M42.921 27.1397H38.1743L37.0344 30.4961H35.0239L39.5199 18.0781H41.6088L46.1047 30.4961H44.06L42.921 27.1397ZM38.666 25.5908H42.4285L40.5737 20.1436H40.5218L38.666 25.5908Z" fill="white"/>
  <path d="M55.8145 25.9695C55.8145 28.7829 54.3044 30.5905 52.0256 30.5905C51.4483 30.6207 50.8742 30.4881 50.369 30.2079C49.8638 29.9278 49.4479 29.5114 49.1689 29.0065H49.1258V33.4909H47.2622V21.4421H49.0661V22.948H49.1004C49.3922 22.4455 49.8151 22.0313 50.3241 21.7495C50.8332 21.4676 51.4093 21.3287 51.9913 21.3474C54.2956 21.3474 55.8145 23.1638 55.8145 25.9695ZM53.899 25.9695C53.899 24.1365 52.949 22.9314 51.4997 22.9314C50.0758 22.9314 49.118 24.1618 49.118 25.9695C49.118 27.7937 50.0758 29.0154 51.4997 29.0154C52.9491 29.0154 53.899 27.8191 53.899 25.9695Z" fill="white"/>
  <path d="M65.8074 25.9694C65.8074 28.7829 64.2973 30.5905 62.0185 30.5905C61.4412 30.6206 60.8671 30.488 60.3619 30.2079C59.8567 29.9278 59.4408 29.5114 59.1619 29.0065H59.1187V33.4909H57.2551V21.4421H59.059V22.948H59.0933C59.385 22.4455 59.808 22.0313 60.317 21.7495C60.8261 21.4676 61.4022 21.3287 61.9842 21.3474C64.2885 21.3474 65.8074 23.1638 65.8074 25.9694ZM63.8919 25.9694C63.8919 24.1364 62.942 22.9314 61.4926 22.9314C60.0687 22.9314 59.1109 24.1618 59.1109 25.9694C59.1109 27.7937 60.0687 29.0153 61.4926 29.0153C62.942 29.0153 63.8919 27.8191 63.8919 25.9694H63.8919Z" fill="white"/>
  <path d="M72.4117 27.0362C72.5498 28.2676 73.7495 29.0762 75.3888 29.0762C76.9596 29.0762 78.0898 28.2676 78.0898 27.1572C78.0898 26.1934 77.4081 25.6162 75.7943 25.2207L74.1804 24.833C71.8937 24.2822 70.8321 23.2158 70.8321 21.4854C70.8321 19.3428 72.7046 17.8711 75.3634 17.8711C77.9947 17.8711 79.7986 19.3428 79.8594 21.4854H77.9781C77.8655 20.2461 76.8382 19.4981 75.3369 19.4981C73.8356 19.4981 72.8083 20.2549 72.8083 21.3565C72.8083 22.2344 73.4645 22.751 75.0696 23.1465L76.4416 23.4824C78.9966 24.0849 80.0581 25.1084 80.0581 26.9248C80.0581 29.248 78.2023 30.7031 75.2507 30.7031C72.4891 30.7031 70.6245 29.2822 70.504 27.0361L72.4117 27.0362Z" fill="white"/>
  <path d="M84.0802 19.2998V21.4424H85.8067V22.9141H84.0802V27.9053C84.0802 28.6807 84.4259 29.042 85.1849 29.042C85.3898 29.0384 85.5945 29.0241 85.7979 28.999V30.4619C85.4567 30.5255 85.1099 30.5543 84.7628 30.5478C82.9246 30.5478 82.2078 29.8593 82.2078 28.1035V22.9141H80.8877V21.4424H82.2078V19.2998H84.0802Z" fill="white"/>
  <path d="M86.8066 25.9697C86.8066 23.1211 88.4891 21.3311 91.1126 21.3311C93.745 21.3311 95.4196 23.1211 95.4196 25.9697C95.4196 28.8262 93.7538 30.6084 91.1126 30.6084C88.4724 30.6084 86.8066 28.8262 86.8066 25.9697ZM93.5207 25.9697C93.5207 24.0156 92.6227 22.8623 91.1126 22.8623C89.6025 22.8623 88.7055 24.0244 88.7055 25.9697C88.7055 27.9316 89.6025 29.0762 91.1126 29.0762C92.6227 29.0762 93.5207 27.9316 93.5207 25.9697H93.5207Z" fill="white"/>
  <path d="M96.9561 21.442H98.7335V22.983H98.7766C98.8969 22.5017 99.1796 22.0764 99.5773 21.7785C99.975 21.4806 100.463 21.3284 100.96 21.3473C101.175 21.3465 101.389 21.3698 101.599 21.4166V23.1549C101.328 23.0723 101.045 23.0343 100.762 23.0426C100.491 23.0316 100.221 23.0792 99.9704 23.1821C99.7199 23.285 99.4946 23.4408 99.3102 23.6386C99.1257 23.8365 98.9863 24.0719 98.9016 24.3286C98.817 24.5852 98.789 24.8571 98.8197 25.1256V30.4957H96.9561L96.9561 21.442Z" fill="white"/>
  <path d="M110.191 27.8369C109.941 29.4805 108.336 30.6084 106.282 30.6084C103.641 30.6084 102.001 28.8437 102.001 26.0127C102.001 23.1729 103.65 21.3311 106.204 21.3311C108.716 21.3311 110.295 23.0518 110.295 25.7969V26.4336H103.883V26.5459C103.853 26.8791 103.895 27.2148 104.005 27.5306C104.116 27.8464 104.293 28.1352 104.524 28.3778C104.755 28.6203 105.035 28.8111 105.345 28.9374C105.656 29.0637 105.99 29.1226 106.325 29.1103C106.765 29.1515 107.207 29.0498 107.585 28.8203C107.963 28.5909 108.256 28.246 108.422 27.8369L110.191 27.8369ZM103.892 25.1348H108.431C108.447 24.8352 108.402 24.5354 108.297 24.2541C108.192 23.9729 108.03 23.7164 107.821 23.5006C107.611 23.2849 107.36 23.1145 107.082 23.0003C106.803 22.8861 106.504 22.8305 106.204 22.8369C105.9 22.8351 105.599 22.8933 105.319 23.008C105.038 23.1227 104.782 23.2918 104.567 23.5054C104.353 23.7191 104.182 23.973 104.066 24.2527C103.95 24.5323 103.891 24.8321 103.892 25.1348V25.1348Z" fill="white"/>
  <path d="M38.4324 8.73138C38.8231 8.70342 39.2152 8.76228 39.5803 8.90371C39.9455 9.04515 40.2746 9.26563 40.5439 9.54925C40.8133 9.83288 41.0161 10.1726 41.1379 10.5438C41.2596 10.9151 41.2972 11.3087 41.2479 11.6962C41.2479 13.6025 40.2148 14.6982 38.4324 14.6982H36.2711V8.73138H38.4324ZM37.2005 13.8544H38.3286C38.6078 13.871 38.8872 13.8254 39.1465 13.7208C39.4057 13.6161 39.6384 13.4552 39.8274 13.2496C40.0164 13.0441 40.1571 12.7991 40.2392 12.5324C40.3213 12.2658 40.3427 11.9843 40.3019 11.7084C40.3397 11.4335 40.3161 11.1538 40.2328 10.8891C40.1494 10.6244 40.0084 10.3814 39.8198 10.1775C39.6312 9.97358 39.3997 9.81378 39.1419 9.70954C38.8841 9.6053 38.6064 9.55922 38.3286 9.57459H37.2005V13.8544Z" fill="white"/>
  <path d="M42.2978 12.4448C42.2694 12.1489 42.3034 11.8503 42.3975 11.5682C42.4916 11.2862 42.6437 11.0268 42.8442 10.8068C43.0447 10.5868 43.2891 10.4111 43.5618 10.2908C43.8344 10.1705 44.1292 10.1084 44.4273 10.1084C44.7254 10.1084 45.0202 10.1705 45.2928 10.2908C45.5654 10.4111 45.8098 10.5868 46.0103 10.8068C46.2108 11.0268 46.363 11.2862 46.4571 11.5682C46.5512 11.8503 46.5852 12.1489 46.5568 12.4448C46.5857 12.741 46.5522 13.04 46.4583 13.3225C46.3645 13.605 46.2124 13.8648 46.0118 14.0853C45.8113 14.3057 45.5667 14.4818 45.2938 14.6023C45.0209 14.7229 44.7257 14.7851 44.4273 14.7851C44.1288 14.7851 43.8337 14.7229 43.5608 14.6023C43.2879 14.4818 43.0433 14.3057 42.8428 14.0853C42.6422 13.8648 42.4901 13.605 42.3963 13.3225C42.3024 13.04 42.2689 12.741 42.2978 12.4448ZM45.6402 12.4448C45.6402 11.4687 45.2004 10.8979 44.4288 10.8979C43.6541 10.8979 43.2184 11.4687 43.2184 12.4448C43.2184 13.4287 43.6542 13.9951 44.4288 13.9951C45.2005 13.9951 45.6402 13.4248 45.6402 12.4448H45.6402Z" fill="white"/>
  <path d="M52.2181 14.6982H51.2937L50.3604 11.3818H50.2899L49.3605 14.6982H48.4449L47.2002 10.1953H48.1041L48.913 13.6313H48.9796L49.908 10.1953H50.7629L51.6913 13.6313H51.7618L52.5668 10.1953H53.4579L52.2181 14.6982Z" fill="white"/>
  <path d="M54.5048 10.1949H55.3626V10.9102H55.4292C55.5422 10.6533 55.7327 10.4379 55.9743 10.2941C56.2158 10.1503 56.4964 10.0852 56.7768 10.1079C56.9965 10.0915 57.2171 10.1245 57.4223 10.2046C57.6274 10.2847 57.8119 10.4098 57.962 10.5707C58.1121 10.7315 58.224 10.924 58.2894 11.1338C58.3548 11.3436 58.372 11.5654 58.3397 11.7827V14.6977H57.4486V12.0059C57.4486 11.2823 57.1332 10.9224 56.4741 10.9224C56.325 10.9155 56.1761 10.9408 56.0376 10.9966C55.8992 11.0525 55.7745 11.1375 55.6721 11.2459C55.5696 11.3543 55.4919 11.4834 55.4443 11.6246C55.3966 11.7657 55.3801 11.9154 55.3959 12.0635V14.6978H54.5048L54.5048 10.1949Z" fill="white"/>
  <path d="M59.7598 8.4375H60.6509V14.6982H59.7598V8.4375Z" fill="white"/>
  <path d="M61.8897 12.4449C61.8613 12.1489 61.8953 11.8503 61.9894 11.5683C62.0835 11.2862 62.2357 11.0268 62.4363 10.8068C62.6368 10.5869 62.8812 10.4111 63.1538 10.2908C63.4265 10.1705 63.7213 10.1084 64.0194 10.1084C64.3176 10.1084 64.6124 10.1705 64.885 10.2908C65.1577 10.4111 65.4021 10.5869 65.6026 10.8068C65.8031 11.0268 65.9553 11.2862 66.0494 11.5683C66.1436 11.8503 66.1775 12.1489 66.1492 12.4449C66.1781 12.7411 66.1445 13.0401 66.0506 13.3226C65.9567 13.6051 65.8046 13.8649 65.604 14.0853C65.4035 14.3058 65.1589 14.4819 64.886 14.6024C64.6131 14.7229 64.3179 14.7852 64.0194 14.7852C63.721 14.7852 63.4258 14.7229 63.1529 14.6024C62.88 14.4819 62.6354 14.3058 62.4348 14.0853C62.2343 13.8649 62.0821 13.6051 61.9883 13.3226C61.8944 13.0401 61.8608 12.7411 61.8897 12.4449ZM65.232 12.4449C65.232 11.4688 64.7923 10.898 64.0207 10.898C63.246 10.898 62.8103 11.4688 62.8103 12.4449C62.8103 13.4288 63.2461 13.9952 64.0207 13.9952C64.7923 13.9952 65.2321 13.4248 65.2321 12.4449H65.232Z" fill="white"/>
  <path d="M67.0874 13.4248C67.0874 12.6142 67.6926 12.147 68.7669 12.0806L69.9901 12.0102V11.6216C69.9901 11.146 69.6747 10.8774 69.0656 10.8774C68.5681 10.8774 68.2234 11.0596 68.1245 11.3779H67.2617C67.3528 10.6045 68.0824 10.1084 69.1067 10.1084C70.2388 10.1084 70.8773 10.6704 70.8773 11.6216V14.6982H70.0194V14.0654H69.9489C69.8058 14.2924 69.6048 14.4775 69.3666 14.6017C69.1283 14.7259 68.8612 14.7848 68.5926 14.7724C68.403 14.7921 68.2114 14.7719 68.0302 14.7132C67.8489 14.6545 67.682 14.5586 67.5402 14.4316C67.3983 14.3047 67.2848 14.1495 67.2068 13.9761C67.1288 13.8026 67.0881 13.6149 67.0874 13.4248ZM69.9901 13.04V12.6636L68.8874 12.7339C68.2655 12.7754 67.9835 12.9863 67.9835 13.3833C67.9835 13.7886 68.336 14.0244 68.8208 14.0244C68.9628 14.0387 69.1063 14.0244 69.2427 13.9823C69.3791 13.9403 69.5056 13.8712 69.6147 13.7794C69.7238 13.6876 69.8132 13.5748 69.8777 13.4477C69.9422 13.3207 69.9804 13.1821 69.9901 13.04Z" fill="white"/>
  <path d="M72.0485 12.4448C72.0485 11.022 72.782 10.1206 73.9228 10.1206C74.2051 10.1077 74.4851 10.1751 74.7303 10.315C74.9756 10.4548 75.1758 10.6615 75.3076 10.9106H75.3742V8.4375H76.2653V14.6982H75.4114V13.9868H75.3409C75.1989 14.2343 74.9917 14.4383 74.7417 14.5768C74.4918 14.7153 74.2086 14.783 73.9229 14.7724C72.7741 14.7725 72.0485 13.8711 72.0485 12.4448ZM72.969 12.4448C72.969 13.3999 73.4205 13.9746 74.1755 13.9746C74.9266 13.9746 75.3909 13.3916 75.3909 12.4487C75.3909 11.5103 74.9218 10.919 74.1755 10.919C73.4254 10.919 72.969 11.4976 72.969 12.4448H72.969Z" fill="white"/>
  <path d="M79.9525 12.4448C79.9241 12.1489 79.958 11.8503 80.0521 11.5682C80.1462 11.2862 80.2984 11.0268 80.4989 10.8068C80.6994 10.5868 80.9438 10.4111 81.2164 10.2908C81.489 10.1705 81.7839 10.1084 82.082 10.1084C82.3801 10.1084 82.6749 10.1705 82.9475 10.2908C83.2201 10.4111 83.4645 10.5868 83.665 10.8068C83.8655 11.0268 84.0177 11.2862 84.1118 11.5682C84.2059 11.8503 84.2398 12.1489 84.2115 12.4448C84.2404 12.741 84.2068 13.04 84.113 13.3225C84.0191 13.605 83.867 13.8648 83.6665 14.0853C83.4659 14.3057 83.2213 14.4818 82.9485 14.6023C82.6756 14.7229 82.3804 14.7851 82.082 14.7851C81.7835 14.7851 81.4883 14.7229 81.2154 14.6023C80.9426 14.4818 80.698 14.3057 80.4974 14.0853C80.2969 13.8648 80.1448 13.605 80.0509 13.3225C79.9571 13.04 79.9235 12.741 79.9525 12.4448ZM83.2948 12.4448C83.2948 11.4687 82.8551 10.8979 82.0834 10.8979C81.3088 10.8979 80.873 11.4687 80.873 12.4448C80.873 13.4287 81.3088 13.9951 82.0834 13.9951C82.8551 13.9951 83.2948 13.4248 83.2948 12.4448Z" fill="white"/>
  <path d="M85.4072 10.1949H86.2651V10.9102H86.3317C86.4447 10.6533 86.6352 10.4379 86.8767 10.2941C87.1183 10.1503 87.3988 10.0852 87.6792 10.1079C87.8989 10.0915 88.1195 10.1245 88.3247 10.2046C88.5299 10.2847 88.7144 10.4098 88.8645 10.5707C89.0146 10.7315 89.1265 10.924 89.1918 11.1338C89.2572 11.3436 89.2744 11.5654 89.2422 11.7827V14.6977H88.351V12.0059C88.351 11.2823 88.0357 10.9224 87.3766 10.9224C87.2274 10.9155 87.0785 10.9408 86.9401 10.9966C86.8016 11.0525 86.6769 11.1375 86.5745 11.2459C86.4721 11.3543 86.3944 11.4834 86.3467 11.6246C86.2991 11.7657 86.2826 11.9154 86.2984 12.0635V14.6978H85.4072V10.1949Z" fill="white"/>
  <path d="M94.2777 9.07422V10.2158H95.256V10.9644H94.2777V13.2798C94.2777 13.7515 94.4726 13.958 94.9162 13.958C95.0298 13.9576 95.1432 13.9508 95.256 13.9375V14.6777C95.096 14.7063 94.9338 14.7215 94.7713 14.7231C93.7802 14.7231 93.3856 14.3755 93.3856 13.5073V10.9643H92.6687V10.2158H93.3856V9.07422H94.2777Z" fill="white"/>
  <path d="M96.4734 8.4375H97.3567V10.919H97.4272C97.5457 10.6596 97.7415 10.443 97.9878 10.2987C98.2342 10.1543 98.5193 10.0893 98.8041 10.1123C99.0227 10.1004 99.2412 10.1368 99.444 10.2189C99.6468 10.3009 99.829 10.4266 99.9776 10.5869C100.126 10.7473 100.237 10.9383 100.303 11.1465C100.369 11.3546 100.388 11.5747 100.359 11.791V14.6982H99.4672V12.0103C99.4672 11.291 99.1312 10.9268 98.5016 10.9268C98.3484 10.9142 98.1943 10.9352 98.0502 10.9883C97.906 11.0413 97.7752 11.1252 97.6669 11.2339C97.5586 11.3426 97.4754 11.4737 97.4232 11.6178C97.371 11.7619 97.351 11.9157 97.3646 12.0683V14.6982H96.4734L96.4734 8.4375Z" fill="white"/>
  <path d="M105.555 13.4825C105.434 13.894 105.172 14.25 104.814 14.4882C104.457 14.7263 104.026 14.8315 103.599 14.7852C103.301 14.7931 103.006 14.7362 102.732 14.6187C102.459 14.5012 102.215 14.3258 102.016 14.1046C101.818 13.8835 101.67 13.6219 101.583 13.3381C101.496 13.0543 101.472 12.755 101.513 12.461C101.473 12.1661 101.498 11.8662 101.584 11.5815C101.671 11.2969 101.818 11.0341 102.015 10.811C102.213 10.5879 102.456 10.4098 102.729 10.2886C103.001 10.1674 103.296 10.1059 103.595 10.1085C104.851 10.1085 105.609 10.9645 105.609 12.3785V12.6886H102.421V12.7384C102.407 12.9036 102.427 13.0699 102.482 13.2267C102.536 13.3834 102.623 13.5271 102.736 13.6486C102.849 13.7701 102.986 13.8666 103.139 13.932C103.292 13.9974 103.457 14.0302 103.623 14.0284C103.836 14.0539 104.052 14.0156 104.244 13.9184C104.435 13.8212 104.593 13.6694 104.697 13.4825L105.555 13.4825ZM102.421 12.0313H104.701C104.713 11.8802 104.692 11.7284 104.641 11.5857C104.59 11.443 104.509 11.3125 104.405 11.2026C104.3 11.0928 104.173 11.006 104.033 10.9478C103.893 10.8896 103.742 10.8613 103.59 10.8648C103.436 10.8629 103.283 10.8917 103.14 10.9497C102.997 11.0076 102.868 11.0935 102.759 11.2022C102.65 11.3109 102.564 11.4403 102.506 11.5827C102.447 11.7251 102.419 11.8776 102.421 12.0313H102.421Z" fill="white"/>
</svg>