<svg width="32" height="32" viewBox="0 0 32 32" fill="none" xmlns="http://www.w3.org/2000/svg">
<g id="icon-wrapper" clip-path="url(#clip0_234_10366)">
<rect id="Rectangle 1" width="32" height="32" fill="white"/>
<g id="Branding" clip-path="url(#clip1_234_10366)">
<g id="PALC_Marque_White">
<path id="Marque" d="M15.5348 13.6492C15.5348 13.6492 12.7785 12.4672 9.75 14.7866C9.75 14.7866 9.88691 12.2292 12.1764 11.6159C14.466 11.0025 15.7047 12.7747 15.5348 13.6492ZM20.1733 17.2762C20.1733 17.2762 21.9086 15.1156 19.9242 13.5814C17.9398 12.0473 16.3744 13.8889 16.3744 13.8889C19.1522 13.6046 20.1733 17.2762 20.1733 17.2762ZM10.7034 8.67986C13.3113 9.47503 15.8977 12.8127 15.8977 12.8127C15.4771 7.5458 10.7133 8.68317 10.7034 8.68317V8.67986ZM22.25 10.8042C17.7683 9.04686 16.612 12.6954 16.612 12.6954C19.0846 13.1384 22.2483 10.8075 22.2483 10.8075L22.25 10.8042ZM17.0079 6.625C14.9427 9.89823 16.2705 12.1498 16.2705 12.1498C18.1213 11.2059 16.998 6.625 17.0079 6.625ZM18.2318 19.8684C18.9246 19.265 19.2759 18.4467 19.2759 17.4002C19.3014 16.4994 18.9476 15.6294 18.3011 15.0032C17.9447 14.6476 17.5035 14.3892 17.0194 14.2526C16.699 14.1707 16.3724 14.1154 16.0429 14.0873C15.6569 15.099 15.068 17.3027 15.0004 20.7594H15.4425C16.6004 20.7776 17.5423 20.4701 18.2334 19.8684H18.2318ZM14.8635 14.0642H12.9369V25.375H13.4317C13.6923 20.7462 14.3389 17.3953 15.6651 14.0873C15.4095 14.0642 15.1489 14.0642 14.8635 14.0642Z" fill="#111111"/>
</g>
</g>
</g>
<defs>
<clipPath id="clip0_234_10366">
<rect width="32" height="32" fill="white"/>
</clipPath>
<clipPath id="clip1_234_10366">
<rect width="12.5" height="18.75" fill="white" transform="translate(9.75 6.625)"/>
</clipPath>
</defs>
</svg>
