<svg width="32" height="32" viewBox="0 0 32 32" fill="none" xmlns="http://www.w3.org/2000/svg">
<g id="icon-wrapper" clip-path="url(#clip0_234_10366)">
<rect id="Rectangle 1" width="32" height="32" fill="#111111"/>
<g id="Branding" clip-path="url(#clip1_234_10366)">
<g id="PALC_Marque_White">
<path id="Marque" d="M15.3813 12.8656C15.3813 12.8656 11.7154 11.2896 7.6875 14.3821C7.6875 14.3821 7.86959 10.9722 10.9147 10.1545C13.9597 9.33671 15.6073 11.6996 15.3813 12.8656ZM21.5504 17.7016C21.5504 17.7016 23.8584 14.8208 21.2192 12.7753C18.58 10.7298 16.498 13.1852 16.498 13.1852C20.1924 12.8061 21.5504 17.7016 21.5504 17.7016ZM8.95555 6.23982C12.424 7.30004 15.864 11.7503 15.864 11.7503C15.3045 4.72774 8.96871 6.24423 8.95555 6.24423V6.23982ZM24.3125 9.07221C18.3518 6.72915 16.8139 11.5938 16.8139 11.5938C20.1025 12.1845 24.3103 9.07662 24.3103 9.07662L24.3125 9.07221ZM17.3404 3.5C14.5937 7.86431 16.3598 10.8664 16.3598 10.8664C18.8213 9.60783 17.3273 3.5 17.3404 3.5ZM18.9683 21.1578C19.8897 20.3533 20.357 19.2622 20.357 17.867C20.3909 16.6659 19.9203 15.5059 19.0604 14.6709C18.5864 14.1967 17.9996 13.8523 17.3558 13.6702C16.9297 13.5609 16.4953 13.4872 16.057 13.4497C15.5437 14.7987 14.7605 17.7369 14.6705 22.3459H15.2585C16.7986 22.3701 18.0513 21.9601 18.9705 21.1578H18.9683ZM14.4884 13.4189H11.926V28.5H12.5842C12.9308 22.3282 13.7908 17.8603 15.5546 13.4497C15.2146 13.4189 14.868 13.4189 14.4884 13.4189Z" fill="white"/>
</g>
</g>
</g>
<defs>
<clipPath id="clip0_234_10366">
<rect width="32" height="32" fill="white"/>
</clipPath>
<clipPath id="clip1_234_10366">
<rect width="16.625" height="25" fill="white" transform="translate(7.6875 3.5)"/>
</clipPath>
</defs>
</svg>
