<svg id="Layer_1" data-name="Layer 1" xmlns="http://www.w3.org/2000/svg" viewBox="0 0 823.93 178.48">
  <defs>
    <style>
      .cls-1 {
        fill: #1d1d1b;
      }
    </style>
  </defs>
  <g>
    <path class="cls-1" d="M28.67,117.71c0,7.92.19,11.02.96,11.8,1.15,1.17,4.01,1.17,13.76,1.74v3.69c-3.63,0-14.53-.38-22.36-.38-6.7,0-18.54.38-21.02.38v-3.69c8.6-.38,11.27-.57,12.42-1.74.75-.78.96-3.88.96-11.8V20.37c0-7.94-.21-11.04-.96-11.82-1.15-1.15-3.82-1.36-12.42-1.74v-3.69c2.49,0,14.32.4,21.02.4,3.44,0,7.64-.19,12.24-.59,4.78-.19,9.75-.4,13.01-.4,13.95,0,25.41,1.95,33.05,7.17,9.37,6.2,14.72,16.26,14.72,26.91,0,15.67-10.88,25.54-27.33,30.76-5.16,1.76-6.31,1.95-6.31,2.53s.57.78,1.34.95l2.88.79c26.94,7.54,30.19,27.66,30.96,48.39.19,6.58.57,8.51,1.32,9.28.79.77,3.07,1.36,12.44,1.74v3.67c-16.83-.38-21.21-.38-29.44-.38l-.19-16.05c-.19-24.6-3.07-30.78-10.32-37.36-7.66-7.17-14.15-8.91-28.31-8.91h-12.42v45.68ZM28.67,66.6c6.49.78,13.95,1.36,19.88,1.36,21.99,0,30.21-16.05,30.21-29.61,0-11.23-4.2-18.96-11.86-25.15-5.72-4.65-13.57-6.58-25.99-6.58-9.56,0-11.27,1.15-11.67,2.12-.56.96-.56,2.7-.56,11.42v46.44Z"/>
    <path class="cls-1" d="M139.38,52.5c24.66,0,38.6,18.57,38.6,42.18s-13.95,42.18-38.6,42.18-38.61-18.59-38.61-42.18,13.95-42.18,38.61-42.18M139.38,133.39c15.87,0,24.28-15.11,24.28-38.7s-8.41-38.7-24.28-38.7-24.28,15.09-24.28,38.7,8.41,38.7,24.28,38.7"/>
    <path class="cls-1" d="M184.7,22.29c0-9.28-.39-13.97-.96-14.56-.77-.78-1.52-.96-4.01-.96h-7.85v-3.29l26.95-3.48c-.94,7.54-1.34,16.09-1.34,30.82v29.21c4.22-2.33,11.48-6.39,22.76-6.39,23.89,0,37.83,18.96,37.83,41.03,0,25.94-18.73,42.2-41.28,42.2-10.71,0-18.54-3.69-24.47-6.39-1.07.7-3.56,3.95-5.89,6.54l-1.83-.49c0-6.01.08-114.24.08-114.24M197.5,127.57c4.4,3.48,9.75,5.81,16.06,5.81,14.91,0,30.21-12.2,30.21-37.74,0-22.07-12.63-36.57-29.06-36.57-6.12,0-12.03,1.93-17.2,5.22v63.28Z"/>
    <path class="cls-1" d="M390.43,117.71c0,7.92.21,11.02,1.02,11.8,1.2,1.17,4.22,1.17,14.46,1.74v3.69c-3.82,0-15.27-.38-23.49-.38-7.02,0-19.46.38-22.08.38v-3.69c9.02-.38,11.84-.57,13.04-1.74.81-.78,1-3.88,1-11.8V20.37c0-7.94-.19-11.04-1-11.82-1.2-1.15-4.03-1.36-13.04-1.74v-3.69c2.62,0,15.06.4,22.08.4,3.61,0,8.02-.19,12.84-.59,5.03-.19,10.24-.4,13.65-.4,14.66,0,26.71,1.95,34.73,7.17,9.84,6.2,15.45,16.26,15.45,26.91,0,15.67-11.43,25.54-28.69,30.76-5.44,1.76-6.63,1.95-6.63,2.53s.6.78,1.39.95l3.01.79c28.31,7.54,31.72,27.66,32.53,48.39.21,6.58.6,8.51,1.41,9.28.79.77,3.2,1.36,13.03,1.74v3.67c-17.66-.38-22.27-.38-30.91-.38l-.19-16.05c-.21-24.6-3.22-30.78-10.84-37.36-8.04-7.17-14.85-8.91-29.72-8.91h-13.04v45.68ZM390.43,66.6c6.83.78,14.66,1.36,20.87,1.36,23.09,0,31.72-16.05,31.72-29.61,0-11.23-4.41-18.96-12.44-25.15-6.02-4.65-14.25-6.58-27.29-6.58-10.05,0-11.84,1.15-12.25,2.12-.6.96-.6,2.7-.6,11.42v46.44Z"/>
    <path class="cls-1" d="M563.84,166.13c0,4.25.19,5.22.96,6.2.57,1.15,3.24,1.34,15.66,2.12v3.29c-7.08,0-17.39-.38-23.13-.38-6.68,0-16.23.38-19.48.38v-3.29c9.54-.19,11.65-.96,12.24-1.74.75-.96.94-2.33.94-11.23v-90.79c0-9.28-.38-10.84-.94-11.42-.77-.77-1.52-.96-4.03-.96h-9.35l1.15-3.48,26-1.17c-.4,5.43-.58,7.75-.58,9.11,0,.57,0,.96.58.96.77,0,1.34-.4,6.31-3.5,6.49-3.86,13.57-6.58,21.59-6.58,19.12,0,32.69,15.3,32.69,37.36,0,25.54-18.73,43.36-42.05,43.36-2.11,0-9.37,0-18.54-3.69v35.45ZM563.84,123.32c5.35,6.58,13.57,7.56,18.14,7.56,16.43,0,28.67-14.9,28.67-36.59,0-19.36-10.88-34.07-26.75-34.07-8.04,0-13.95,3.5-20.06,7.56v55.53Z"/>
    <path class="cls-1" d="M669.74,52.5c24.66,0,38.61,18.57,38.61,42.18s-13.95,42.18-38.61,42.18-38.61-18.59-38.61-42.18,13.95-42.18,38.61-42.18M669.74,133.39c15.87,0,24.28-15.11,24.28-38.7s-8.41-38.7-24.28-38.7-24.28,15.09-24.28,38.7,8.43,38.7,24.28,38.7"/>
    <path class="cls-1" d="M264.64,22.29c0-9.28-.39-13.97-.96-14.56-.77-.78-1.52-.96-4.01-.96h-7.85v-3.29l26.95-3.48c-.94,7.54-1.34,16.09-1.34,30.82v29.21c4.22-2.33,11.48-6.39,22.76-6.39,23.89,0,37.83,18.96,37.83,41.03,0,25.94-18.73,42.2-41.28,42.2-10.71,0-18.54-3.69-24.47-6.39-1.07.7-3.56,3.95-5.89,6.54l-1.83-.49c0-6.01.07-114.24.07-114.24M277.44,127.57c4.4,3.48,9.75,5.81,16.06,5.81,14.93,0,30.21-12.2,30.21-37.74,0-22.07-12.61-36.57-29.06-36.57-6.1,0-12.03,1.93-17.2,5.22v63.28Z"/>
    <path class="cls-1" d="M525.93,88.52l-44.16-.4c-.38,1.55-.38,4.27-.38,7.17,0,18.57,9.94,34.83,31.17,34.83,11.07,0,18.33-5.03,26.35-13.54l2.3,2.31c-6.68,7.94-18.73,18.59-35.54,18.59-21.98,0-38.61-15.68-38.61-40.25,0-22.84,16.04-44.11,40.32-44.11,9.41,0,18.9,5.99,22.59,9.79,5.02,4.44,10.75,13.52,12.63,25.64l-16.68-.02ZM527.73,84.54c.94-12.33-6.57-27.53-20.72-27.96-13.76,0-22.94,11.8-25.03,28.06l45.76-.09Z"/>
    <path class="cls-1" d="M728.42,75.14c0,.59,0,.97.4.97.17,0,.38-.38.56-.78,7.27-20.31,14.51-22.82,20.63-22.82,9.18,0,13.76,8.89,13.76,10.25,0,2.14-5.93,6.58-8.23,6.58-1.69,0-2.09-.19-5.35-3.48-2.86-2.91-4.2-4.09-6.3-4.09-5.91,0-13.55,14.14-13.55,24.98v36.57c0,4.07,0,5.24.57,5.81.77.96,4.01,1.55,14.72,2.34v3.27c-5.36,0-14.91-.38-21.59-.38-5.74,0-16.05.38-18.16.38v-3.27c8.04-.21,10.13-.98,10.71-1.76.75-.96.94-2.33.94-11.23v-47.78c0-9.3-.38-10.85-.94-11.42-.77-.78-1.52-.98-4.01-.98h-7.66l1.15-3.48,23.32-1.15-.96,21.48Z"/>
    <path class="cls-1" d="M788.44,58.11c-.38,6.98-.77,17.62-.77,23.24v20.1c0,21.29,0,26.91,11.48,26.91,5.74,0,11.26-2.14,16.04-4.07l.4,2.7c-5.18,3.29-16.05,9.87-27.14,9.87-9.94,0-13.57-4.65-13.57-16.64v-45.66c0-12.78,0-13.54-.57-14.71-.19-.57-.77-1.15-2.67-1.15-2.3,0-4.22.19-5.35.19-.77,0-.96,0-.96-.38,0-.21.38-.4.77-.98l20.82-28.25c.57-.78.75-.96,1.34-.96.77,0,.96.59.96,1.15,0,.96-.58,7.54-1.54,23.8h25.24l-1.34,4.25-23.13.59Z"/>
    <path class="cls-1" d="M820.97,118.5c1.6,0,2.95,1.3,2.95,2.97s-1.32,2.97-2.95,2.97-2.96-1.32-2.96-2.97,1.34-2.97,2.96-2.97M820.97,123.91c1.34,0,2.43-1.08,2.43-2.44s-1.09-2.44-2.43-2.44-2.41,1.08-2.41,2.44,1.07,2.44,2.41,2.44M820.39,123.06h-.66v-3.18h1.47c.19,0,1.2,0,1.2.95,0,.61-.43.78-.58.85l.58,1.38h-.72l-.51-1.27h-.79v1.27ZM820.39,121.26h.72c.23,0,.6-.06.6-.43,0-.21-.13-.43-.55-.43h-.77v.87Z"/>
    <path class="cls-1" d="M28.67,117.71c0,7.92.19,11.02.96,11.8,1.15,1.17,4.01,1.17,13.76,1.74v3.69c-3.63,0-14.53-.38-22.36-.38-6.7,0-18.54.38-21.02.38v-3.69c8.6-.38,11.27-.57,12.42-1.74.75-.78.96-3.88.96-11.8V20.37c0-7.94-.21-11.04-.96-11.82-1.15-1.15-3.82-1.36-12.42-1.74v-3.69c2.49,0,14.32.4,21.02.4,3.44,0,7.64-.19,12.24-.59,4.78-.19,9.75-.4,13.01-.4,13.95,0,25.41,1.95,33.05,7.17,9.37,6.2,14.72,16.26,14.72,26.91,0,15.67-10.88,25.54-27.33,30.76-5.16,1.76-6.31,1.95-6.31,2.53s.57.78,1.34.95l2.88.79c26.94,7.54,30.19,27.66,30.96,48.39.19,6.58.57,8.51,1.32,9.28.79.77,3.07,1.36,12.44,1.74v3.67c-16.83-.38-21.21-.38-29.44-.38l-.19-16.05c-.19-24.6-3.07-30.78-10.32-37.36-7.66-7.17-14.15-8.91-28.31-8.91h-12.42v45.68ZM28.67,66.6c6.49.78,13.95,1.36,19.88,1.36,21.99,0,30.21-16.05,30.21-29.61,0-11.23-4.2-18.96-11.86-25.15-5.72-4.65-13.57-6.58-25.99-6.58-9.56,0-11.27,1.15-11.67,2.12-.56.96-.56,2.7-.56,11.42v46.44Z"/>
    <path class="cls-1" d="M139.38,52.5c24.66,0,38.6,18.57,38.6,42.18s-13.95,42.18-38.6,42.18-38.61-18.59-38.61-42.18,13.95-42.18,38.61-42.18M139.38,133.39c15.87,0,24.28-15.11,24.28-38.7s-8.41-38.7-24.28-38.7-24.28,15.09-24.28,38.7,8.41,38.7,24.28,38.7"/>
    <path class="cls-1" d="M184.7,22.29c0-9.28-.39-13.97-.96-14.56-.77-.78-1.52-.96-4.01-.96h-7.85v-3.29l26.95-3.48c-.94,7.54-1.34,16.09-1.34,30.82v29.21c4.22-2.33,11.48-6.39,22.76-6.39,23.89,0,37.83,18.96,37.83,41.03,0,25.94-18.73,42.2-41.28,42.2-10.71,0-18.54-3.69-24.47-6.39-1.07.7-3.56,3.95-5.89,6.54l-1.83-.49c0-6.01.08-114.24.08-114.24M197.5,127.57c4.4,3.48,9.75,5.81,16.06,5.81,14.91,0,30.21-12.2,30.21-37.74,0-22.07-12.63-36.57-29.06-36.57-6.12,0-12.03,1.93-17.2,5.22v63.28Z"/>
    <path class="cls-1" d="M390.43,117.71c0,7.92.21,11.02,1.02,11.8,1.2,1.17,4.22,1.17,14.46,1.74v3.69c-3.82,0-15.27-.38-23.49-.38-7.02,0-19.46.38-22.08.38v-3.69c9.02-.38,11.84-.57,13.04-1.74.81-.78,1-3.88,1-11.8V20.37c0-7.94-.19-11.04-1-11.82-1.2-1.15-4.03-1.36-13.04-1.74v-3.69c2.62,0,15.06.4,22.08.4,3.61,0,8.02-.19,12.84-.59,5.03-.19,10.24-.4,13.65-.4,14.66,0,26.71,1.95,34.73,7.17,9.84,6.2,15.45,16.26,15.45,26.91,0,15.67-11.43,25.54-28.69,30.76-5.44,1.76-6.63,1.95-6.63,2.53s.6.78,1.39.95l3.01.79c28.31,7.54,31.72,27.66,32.53,48.39.21,6.58.6,8.51,1.41,9.28.79.77,3.2,1.36,13.03,1.74v3.67c-17.66-.38-22.27-.38-30.91-.38l-.19-16.05c-.21-24.6-3.22-30.78-10.84-37.36-8.04-7.17-14.85-8.91-29.72-8.91h-13.04v45.68ZM390.43,66.6c6.83.78,14.66,1.36,20.87,1.36,23.09,0,31.72-16.05,31.72-29.61,0-11.23-4.41-18.96-12.44-25.15-6.02-4.65-14.25-6.58-27.29-6.58-10.05,0-11.84,1.15-12.25,2.12-.6.96-.6,2.7-.6,11.42v46.44Z"/>
    <path class="cls-1" d="M563.84,166.13c0,4.25.19,5.22.96,6.2.57,1.15,3.24,1.34,15.66,2.12v3.29c-7.08,0-17.39-.38-23.13-.38-6.68,0-16.23.38-19.48.38v-3.29c9.54-.19,11.65-.96,12.24-1.74.75-.96.94-2.33.94-11.23v-90.79c0-9.28-.38-10.84-.94-11.42-.77-.77-1.52-.96-4.03-.96h-9.35l1.15-3.48,26-1.17c-.4,5.43-.58,7.75-.58,9.11,0,.57,0,.96.58.96.77,0,1.34-.4,6.31-3.5,6.49-3.86,13.57-6.58,21.59-6.58,19.12,0,32.69,15.3,32.69,37.36,0,25.54-18.73,43.36-42.05,43.36-2.11,0-9.37,0-18.54-3.69v35.45ZM563.84,123.32c5.35,6.58,13.57,7.56,18.14,7.56,16.43,0,28.67-14.9,28.67-36.59,0-19.36-10.88-34.07-26.75-34.07-8.04,0-13.95,3.5-20.06,7.56v55.53Z"/>
    <path class="cls-1" d="M669.74,52.5c24.66,0,38.61,18.57,38.61,42.18s-13.95,42.18-38.61,42.18-38.61-18.59-38.61-42.18,13.95-42.18,38.61-42.18M669.74,133.39c15.87,0,24.28-15.11,24.28-38.7s-8.41-38.7-24.28-38.7-24.28,15.09-24.28,38.7,8.43,38.7,24.28,38.7"/>
    <path class="cls-1" d="M264.64,22.29c0-9.28-.39-13.97-.96-14.56-.77-.78-1.52-.96-4.01-.96h-7.85v-3.29l26.95-3.48c-.94,7.54-1.34,16.09-1.34,30.82v29.21c4.22-2.33,11.48-6.39,22.76-6.39,23.89,0,37.83,18.96,37.83,41.03,0,25.94-18.73,42.2-41.28,42.2-10.71,0-18.54-3.69-24.47-6.39-1.07.7-3.56,3.95-5.89,6.54l-1.83-.49c0-6.01.07-114.24.07-114.24M277.44,127.57c4.4,3.48,9.75,5.81,16.06,5.81,14.93,0,30.21-12.2,30.21-37.74,0-22.07-12.61-36.57-29.06-36.57-6.1,0-12.03,1.93-17.2,5.22v63.28Z"/>
    <path class="cls-1" d="M525.93,88.52l-44.16-.4c-.38,1.55-.38,4.27-.38,7.17,0,18.57,9.94,34.83,31.17,34.83,11.07,0,18.33-5.03,26.35-13.54l2.3,2.31c-6.68,7.94-18.73,18.59-35.54,18.59-21.98,0-38.61-15.68-38.61-40.25,0-22.84,16.04-44.11,40.32-44.11,9.41,0,18.9,5.99,22.59,9.79,5.02,4.44,10.75,13.52,12.63,25.64l-16.68-.02ZM527.73,84.54c.94-12.33-6.57-27.53-20.72-27.96-13.76,0-22.94,11.8-25.03,28.06l45.76-.09Z"/>
    <path class="cls-1" d="M728.42,75.14c0,.59,0,.97.4.97.17,0,.38-.38.56-.78,7.27-20.31,14.51-22.82,20.63-22.82,9.18,0,13.76,8.89,13.76,10.25,0,2.14-5.93,6.58-8.23,6.58-1.69,0-2.09-.19-5.35-3.48-2.86-2.91-4.2-4.09-6.3-4.09-5.91,0-13.55,14.14-13.55,24.98v36.57c0,4.07,0,5.24.57,5.81.77.96,4.01,1.55,14.72,2.34v3.27c-5.36,0-14.91-.38-21.59-.38-5.74,0-16.05.38-18.16.38v-3.27c8.04-.21,10.13-.98,10.71-1.76.75-.96.94-2.33.94-11.23v-47.78c0-9.3-.38-10.85-.94-11.42-.77-.78-1.52-.98-4.01-.98h-7.66l1.15-3.48,23.32-1.15-.96,21.48Z"/>
    <path class="cls-1" d="M788.44,58.11c-.38,6.98-.77,17.62-.77,23.24v20.1c0,21.29,0,26.91,11.48,26.91,5.74,0,11.26-2.14,16.04-4.07l.4,2.7c-5.18,3.29-16.05,9.87-27.14,9.87-9.94,0-13.57-4.65-13.57-16.64v-45.66c0-12.78,0-13.54-.57-14.71-.19-.57-.77-1.15-2.67-1.15-2.3,0-4.22.19-5.35.19-.77,0-.96,0-.96-.38,0-.21.38-.4.77-.98l20.82-28.25c.57-.78.75-.96,1.34-.96.77,0,.96.59.96,1.15,0,.96-.58,7.54-1.54,23.8h25.24l-1.34,4.25-23.13.59Z"/>
    <path class="cls-1" d="M820.97,118.5c1.6,0,2.95,1.3,2.95,2.97s-1.32,2.97-2.95,2.97-2.96-1.32-2.96-2.97,1.34-2.97,2.96-2.97M820.97,123.91c1.34,0,2.43-1.08,2.43-2.44s-1.09-2.44-2.43-2.44-2.41,1.08-2.41,2.44,1.07,2.44,2.41,2.44M820.39,123.06h-.66v-3.18h1.47c.19,0,1.2,0,1.2.95,0,.61-.43.78-.58.85l.58,1.38h-.72l-.51-1.27h-.79v1.27ZM820.39,121.26h.72c.23,0,.6-.06.6-.43,0-.21-.13-.43-.55-.43h-.77v.87Z"/>
  </g>
  <g>
    <path class="cls-1" d="M643.34,168.53h-8.18v6.39h9.54v2.72h-12.63v-20.92h12.36v2.72h-9.26v6.39h8.18v2.72Z"/>
    <path class="cls-1" d="M652.81,163.78v13.86h-3.1v-21.55l14.54,14.73v-14.1h3.1v21.76l-14.54-14.7Z"/>
    <path class="cls-1" d="M692.07,168.53h-8.18v6.39h9.54v2.72h-12.63v-20.92h12.36v2.72h-9.26v6.39h8.18v2.72Z"/>
    <path class="cls-1" d="M698.04,175.54l1.55-2.12c2.07,1.47,3.42,1.77,5.03,1.77,2.55,0,3.69-1.11,3.69-3.12,0-4.89-9.89-2.94-9.89-9.95,0-4.37,3.34-5.7,6.14-5.7,2.36,0,3.99.6,6.41,2.39l-1.55,2.09c-2.04-1.47-3.34-1.77-4.86-1.77s-3.07.79-3.07,2.99c0,1.66,2.09,2.66,3.7,3.26,2.99,1.09,6.19,2.66,6.19,6.68,0,4.4-3.07,5.84-6.76,5.84-2.28,0-4-.49-6.58-2.36Z"/>
    <path class="cls-1" d="M716.4,177.63v-20.92h6.68c3.94,0,7.04,2.2,7.04,6.22,0,3.78-3.21,5.98-6.85,5.98h-3.78v8.72h-3.1ZM723.2,166.19c1.98,0,3.8-1.3,3.8-3.26,0-2.28-1.93-3.51-4.05-3.51h-3.45v6.77h3.7Z"/>
    <path class="cls-1" d="M733.6,177.63h-3.29l10-21.55,9.94,21.55h-3.29l-2.42-5.46h-8.53l-2.42,5.46ZM737.13,169.45h6.3l-3.12-6.87-3.18,6.87Z"/>
    <path class="cls-1" d="M757.15,163.78v13.86h-3.1v-21.55l14.54,14.73v-14.1h3.1v21.76l-14.54-14.7ZM760.25,152.85c-1.17,0-1.55.84-1.55,1.85h-1.14c0-1.85,1.2-3.72,2.69-3.72,1.82,0,3.23,1.9,4.89,1.9,1.17,0,1.55-.84,1.55-1.85h1.14c0,1.77-1.17,3.72-2.64,3.72-1.85,0-3.29-1.9-4.94-1.9Z"/>
    <path class="cls-1" d="M776.57,167.15c0-5.87,4.84-10.71,10.76-10.71s10.71,4.89,10.71,10.71-4.84,10.76-10.71,10.76-10.76-4.81-10.76-10.76ZM779.75,167.15c0,4.24,3.26,8.04,7.58,8.04s7.53-3.8,7.53-8.04-3.23-7.99-7.53-7.99-7.58,3.78-7.58,7.99Z"/>
    <path class="cls-1" d="M802.92,177.63v-20.92h3.1v18.21h9.54v2.72h-12.63Z"/>
  </g>
</svg>