<svg xmlns="http://www.w3.org/2000/svg" width="32" height="32" viewBox="0 0 20 20" fill="none">
  <path d="M10 14.0704C10.7949 14.0704 11.5269 13.8512 12.1962 13.4127C12.8657 12.9741 13.3687 12.3921 13.7052 11.6667H6.29479C6.63132 12.3921 7.13431 12.9741 7.80375 13.4127C8.47306 13.8512 9.20514 14.0704 10 14.0704ZM6.5 8.81417L7.41667 7.90708L8.32375 8.81417L8.84625 8.29167L7.41667 6.8525L5.9775 8.29167L6.5 8.81417ZM11.6763 8.81417L12.5833 7.90708L13.5 8.81417L14.0225 8.29167L12.5833 6.8525L11.1538 8.29167L11.6763 8.81417ZM10.0027 17.5C8.96563 17.5 7.99056 17.3032 7.0775 16.9096C6.16458 16.516 5.37042 15.9818 4.695 15.3071C4.01958 14.6324 3.48493 13.8389 3.09104 12.9267C2.69701 12.0146 2.5 11.0399 2.5 10.0027C2.5 8.96563 2.69681 7.99056 3.09042 7.0775C3.48403 6.16458 4.01819 5.37042 4.69292 4.695C5.36764 4.01958 6.16111 3.48493 7.07333 3.09104C7.98542 2.69701 8.96007 2.5 9.99729 2.5C11.0344 2.5 12.0094 2.69681 12.9225 3.09042C13.8354 3.48403 14.6296 4.01819 15.305 4.69292C15.9804 5.36764 16.5151 6.16111 16.909 7.07333C17.303 7.98542 17.5 8.96007 17.5 9.99729C17.5 11.0344 17.3032 12.0094 16.9096 12.9225C16.516 13.8354 15.9818 14.6296 15.3071 15.305C14.6324 15.9804 13.8389 16.5151 12.9267 16.909C12.0146 17.303 11.0399 17.5 10.0027 17.5Z" fill="#111111"/>
</svg>