<svg width="150" height="75" viewBox="0 0 150 75" fill="none" xmlns="http://www.w3.org/2000/svg">
<g id="Branding">
<path id="Logo" fill-rule="evenodd" clip-rule="evenodd" d="M3.19312 41.9913H4.38124C7.32653 41.9913 8.78718 40.8471 8.78718 38.5835C8.78718 36.3945 7.27728 35.3 4.25748 35.3H3.19312V41.9913ZM3.19312 44.9514V53.5829H4.95049e-05V32.3151H3.61366C5.39584 32.3151 6.73272 32.4394 7.62356 32.6882C8.53965 32.9369 9.33173 33.4096 10.0248 34.0812C11.2377 35.2752 11.8565 36.7925 11.8565 38.6084C11.8565 40.5486 11.2127 42.0908 9.90104 43.2351C8.61366 44.3793 6.85649 44.9514 4.65327 44.9514H3.19312ZM27.5494 45.424L24.4058 38.1854L21.1138 45.424H27.5494ZM28.8613 48.4338H19.8019L17.4504 53.6077H13.985L24.4553 30.9967L34.5544 53.6077H31.0643L28.8613 48.4338ZM43.2177 42.0908H44.2328C47.2526 42.0908 48.7622 40.9217 48.7622 38.6083C48.7622 36.4194 47.3018 35.3498 44.3565 35.3498H43.2177V42.0908ZM47.2031 44.5285L53.7625 53.5829H49.8516L43.8117 44.8768H43.2427V53.5829H40.0494V32.315H43.7872C46.5843 32.315 48.614 32.8374 49.8516 33.907C51.213 35.0761 51.906 36.6432 51.906 38.5586C51.906 40.0759 51.485 41.3694 50.6187 42.439C49.7523 43.5335 48.614 44.23 47.2031 44.5285ZM70.8662 45.424L67.7227 38.1854L64.4306 45.424H70.8662ZM72.1781 48.4338H63.1187L60.7672 53.6077H57.3269L67.7972 30.9967L77.8957 53.6077H74.4058L72.1781 48.4338ZM86.5345 50.5731H87.9704C89.406 50.5731 90.5939 50.4238 91.5595 50.1253C92.5001 49.802 93.3664 49.3045 94.1335 48.608C95.7179 47.1652 96.485 45.2748 96.485 42.9614C96.485 40.6232 95.7179 38.7327 94.1585 37.29C92.7721 35.9965 90.6932 35.3498 87.9704 35.3498H86.5345V50.5731ZM83.3417 53.6078V32.3399H87.7721C89.9011 32.3399 91.584 32.5389 92.8216 32.9618C94.1585 33.3847 95.3466 34.0812 96.4355 35.0762C98.614 37.0661 99.7028 39.7029 99.7028 42.9614C99.7028 46.22 98.5645 48.8816 96.287 50.8964C95.1486 51.9163 93.9355 52.6128 92.6979 53.0108C91.5345 53.4088 89.8761 53.6078 87.7229 53.6078H83.3417ZM106.559 53.5829H109.752V32.3151H106.559V53.5829ZM129.604 35.499L127.005 37.0412C126.51 36.1955 126.064 35.6483 125.619 35.3995C125.173 35.101 124.579 34.9518 123.861 34.9518C122.97 34.9518 122.228 35.2005 121.658 35.698C121.064 36.1955 120.792 36.8174 120.792 37.5636C120.792 38.6083 121.559 39.4292 123.094 40.0759L125.198 40.9466C126.906 41.6431 128.168 42.4888 128.96 43.5086C129.753 44.5036 130.148 45.7474 130.148 47.215C130.148 49.1801 129.505 50.7969 128.193 52.0655C126.881 53.359 125.272 54.0058 123.317 54.0058C121.485 54.0058 119.95 53.4585 118.762 52.364C117.574 51.2695 116.856 49.7273 116.559 47.7373L119.802 47.016C119.95 48.2597 120.198 49.1303 120.569 49.6029C121.237 50.5233 122.178 50.9711 123.441 50.9711C124.431 50.9711 125.272 50.6477 125.916 49.9761C126.584 49.3044 126.906 48.4587 126.906 47.4388C126.906 47.016 126.856 46.6429 126.733 46.2946C126.609 45.9464 126.435 45.623 126.188 45.3494C125.94 45.0509 125.643 44.7773 125.247 44.5285C124.851 44.2798 124.406 44.031 123.886 43.8071L121.832 42.9614C118.935 41.7425 117.475 39.9267 117.475 37.5636C117.475 35.9716 118.094 34.6284 119.307 33.5588C120.52 32.4643 122.03 31.9419 123.836 31.9419C126.337 31.9171 128.242 33.111 129.604 35.499ZM148.49 35.3497H140V40.4739H148.243V43.4837H140V50.5979H148.49V53.6077H136.807V32.3399H148.49V35.3497ZM148.515 57.0902V75H0V57.0902H148.515ZM80.5693 61.9159C79.1832 61.9159 78.0693 62.4383 77.203 63.4582C76.5097 64.3039 76.1384 65.2491 76.1384 66.3187C76.1384 67.5127 76.5594 68.5326 77.401 69.3783C78.2423 70.2241 79.2574 70.6469 80.47 70.6469C81.2624 70.6469 82.0297 70.4479 82.7475 70.0251V68.4828C82.5495 68.657 82.3515 68.8062 82.1535 68.9306C81.9552 69.055 81.7822 69.1544 81.6089 69.2291C81.2871 69.3783 80.9158 69.4529 80.47 69.4529C79.6037 69.4529 78.8861 69.1545 78.2921 68.5326C77.698 67.9356 77.401 67.1894 77.401 66.2939C77.401 65.3984 77.698 64.6521 78.2921 64.0303C78.8861 63.4084 79.6037 63.1099 80.47 63.1099C81.2624 63.1099 82.005 63.4084 82.7475 64.0303V62.5378C82.0545 62.1149 81.3119 61.9159 80.5693 61.9159ZM138.911 62.0652H134.282V70.4728H138.911V69.2788H135.544V66.468H138.812V65.274H135.544V63.2592H138.911V62.0652ZM125.767 62.0652H120.644V63.2592H122.574V70.4728H123.837V63.2592H125.767V62.0652ZM109.035 62.0652H107.55V70.4728H108.812V67.0401H109.035L111.436 70.4728H112.97L110.396 66.8909C110.941 66.7665 111.411 66.4929 111.733 66.07C112.079 65.6471 112.252 65.1248 112.252 64.5278C112.252 63.7566 111.98 63.1597 111.436 62.687C110.941 62.2642 110.149 62.0652 109.035 62.0652ZM95.1238 61.5428L90.9899 70.4728H92.3512L93.2673 68.4331H96.8564L97.7228 70.4728H99.1089L95.1238 61.5428ZM53.2921 61.5428L49.1582 70.4728H50.5196L51.4356 68.4331H55.0248L55.8911 70.4728H57.2772L53.2921 61.5428ZM38.5891 62.0652H37.3267V70.4728H41.0644V69.2788H38.5891V62.0652ZM14.0842 61.5428L9.95049 70.4728H11.3119L12.2277 68.4331H15.8168L16.6832 70.4728H18.0693L14.0842 61.5428ZM53.2673 64.3785L54.5049 67.2391H51.9801L53.2673 64.3785ZM95.0991 64.3785L96.3367 67.2391H93.7872L95.0991 64.3785ZM14.0594 64.3785L15.297 67.2391H12.7475L14.0594 64.3785ZM109.257 63.2592C110.421 63.2592 111.015 63.6821 111.015 64.5527C111.015 65.4731 110.421 65.9208 109.208 65.9208H108.812V63.2592H109.257ZM13.5146 59.6026L14.0097 60.8463L15.2473 61.3189L14.7522 60.1001L13.5146 59.6026ZM70.5044 11.1859C70.8762 11.1863 71.2224 11.1896 71.555 11.2199C69.5639 16.1971 68.5939 21.2429 68.2023 28.2043H67.4704V11.1858L70.5044 11.1859ZM72.1337 11.2371C72.7124 11.2884 73.2062 11.3739 73.5976 11.4767C74.3295 11.6819 74.9592 12.0582 75.5208 12.6055C76.4909 13.5462 76.9845 14.7604 76.9845 16.2143C76.9845 17.7879 76.4567 19.0194 75.4186 19.9258C74.3805 20.8325 72.9679 21.2942 71.2317 21.277H70.5679C70.6701 16.0775 71.5553 12.7592 72.1337 11.2371ZM77.9544 10.4675C80.9331 12.7764 78.3289 16.0262 78.3289 16.0262C78.3289 16.0262 76.7972 10.5016 72.6274 10.9292C72.6274 10.9292 74.9762 8.15839 77.9544 10.4675ZM71.368 10.57C71.368 10.57 67.2322 8.79125 62.6878 12.2804C62.6878 12.2804 62.8921 8.43206 66.3299 7.50847C69.7681 6.58487 71.6232 9.25318 71.368 10.57ZM71.9127 9.32146C71.9127 9.32146 68.032 4.29304 64.1176 3.09558C64.1344 3.09558 71.2827 1.3852 71.9127 9.32146ZM81.4438 6.29411C81.4438 6.29411 76.6951 9.80044 72.9849 9.13331C72.9849 9.13331 74.7208 3.64297 81.4438 6.29411ZM73.5806 0C73.5799 0 73.582 0.0110284 73.5863 0.0322939L73.5946 0.0717709C73.7495 0.807429 75.082 6.97795 72.4742 8.31237C72.4742 8.31237 70.4828 4.92568 73.5806 0Z" fill="#111111"/>
</g>
</svg>
