<svg xmlns="http://www.w3.org/2000/svg" width="32" height="32" viewBox="0 0 32 32" fill="none">
  <path d="M10.4279 17.4925L14.1769 13.7521L4.88391 4.48035C2.81734 6.54221 2.81734 9.89271 4.88391 11.9546L10.4279 17.4925ZM19.4162 15.0936C21.4364 16.0386 24.2912 15.3712 26.3975 13.2697C28.9343 10.7386 29.4179 7.12375 27.4771 5.18746C25.5298 3.25117 21.9 3.73359 19.3698 6.26465C17.2635 8.36615 16.6011 11.2144 17.5417 13.23C14.5942 16.1642 4.60572 26.1298 4.60572 26.1298L6.48021 28L15.5943 18.9067L24.7085 28L26.5829 26.1298L17.4688 17.0365L19.4162 15.0936Z" fill="#111111"/>
</svg>