<svg xmlns="http://www.w3.org/2000/svg" width="32" height="32" viewBox="0 0 32 32" fill="none">
  <path d="M20 14.668V6.66797L16 2.66797L12 6.66797V9.33464H4V28.0013H28V14.668H20ZM9.33333 25.3346H6.66667V22.668H9.33333V25.3346ZM9.33333 20.0013H6.66667V17.3346H9.33333V20.0013ZM9.33333 14.668H6.66667V12.0013H9.33333V14.668ZM17.3333 25.3346H14.6667V22.668H17.3333V25.3346ZM17.3333 20.0013H14.6667V17.3346H17.3333V20.0013ZM17.3333 14.668H14.6667V12.0013H17.3333V14.668ZM17.3333 9.33464H14.6667V6.66797H17.3333V9.33464ZM25.3333 25.3346H22.6667V22.668H25.3333V25.3346ZM25.3333 20.0013H22.6667V17.3346H25.3333V20.0013Z" fill="#111111"/>
</svg>