<svg xmlns="http://www.w3.org/2000/svg" width="80" height="24" viewBox="0 0 80 24" fill="none">
  <path fill-rule="evenodd" clip-rule="evenodd" d="M1.703 6.12959H2.33666C3.90749 6.12959 4.68649 5.51933 4.68649 4.31208C4.68649 3.14463 3.88121 2.56091 2.27065 2.56091H1.703V6.12959ZM1.703 7.70831V12.3118H2.64026e-05V0.96893H1.92729C2.87778 0.96893 3.59079 1.03526 4.0659 1.16793C4.55448 1.30059 4.97692 1.55265 5.34656 1.91085C5.99343 2.54764 6.32346 3.3569 6.32346 4.32535C6.32346 5.36014 5.98009 6.18266 5.28055 6.79292C4.59395 7.40318 3.65679 7.70831 2.48174 7.70831H1.703ZM14.693 7.96034L13.0164 4.09979L11.2607 7.96034H14.693ZM15.3927 9.56559H10.561L9.30688 12.325H7.45869L13.0429 0.265779L18.429 12.325H16.5676L15.3927 9.56559ZM23.0494 6.18265H23.5908C25.2014 6.18265 26.0065 5.55912 26.0065 4.32534C26.0065 3.15789 25.2276 2.58743 23.6568 2.58743H23.0494V6.18265ZM25.175 7.48276L28.6733 12.3118H26.5875L23.3663 7.66849H23.0628V12.3118H21.3597V0.968917H23.3532C24.8449 0.968917 25.9274 1.24751 26.5875 1.81797C27.3136 2.4415 27.6832 3.27729 27.6832 4.29881C27.6832 5.10806 27.4587 5.79792 26.9966 6.36838C26.5346 6.9521 25.9274 7.32356 25.175 7.48276ZM37.7953 7.96034L36.1188 4.09979L34.363 7.96034H37.7953ZM38.495 9.56559H33.6633L32.4092 12.325H30.5743L36.1585 0.265779L41.5444 12.325H39.6831L38.495 9.56559ZM46.1517 10.7065H46.9175C47.6832 10.7065 48.3167 10.6269 48.8317 10.4677C49.3334 10.2953 49.7954 10.0299 50.2045 9.65848C51.0496 8.88902 51.4587 7.88077 51.4587 6.64699C51.4587 5.39994 51.0496 4.39168 50.2179 3.62223C49.4785 2.93237 48.3697 2.58744 46.9175 2.58744H46.1517V10.7065ZM44.4489 12.325V0.982196H46.8118C47.9472 0.982196 48.8448 1.08833 49.5049 1.31386C50.2179 1.53939 50.8515 1.91085 51.4323 2.44151C52.5941 3.50283 53.1748 4.90908 53.1748 6.64699C53.1748 8.3849 52.5677 9.80441 51.3531 10.879C50.7459 11.4229 50.0989 11.7944 49.4389 12.0066C48.8184 12.2189 47.9339 12.325 46.7855 12.325H44.4489ZM56.8316 12.3118H58.5346V0.96893H56.8316V12.3118ZM69.122 2.66703L67.7359 3.48955C67.4719 3.03849 67.2342 2.74662 66.9966 2.61396C66.7591 2.45476 66.4422 2.37516 66.0595 2.37516C65.5841 2.37516 65.188 2.50783 64.8844 2.77316C64.5676 3.03849 64.4224 3.37015 64.4224 3.76814C64.4224 4.32534 64.8316 4.76313 65.6501 5.10806L66.7722 5.57239C67.6832 5.94385 68.3564 6.39491 68.7788 6.93884C69.2014 7.4695 69.4125 8.13282 69.4125 8.91554C69.4125 9.9636 69.0694 10.8259 68.3696 11.5025C67.6699 12.1924 66.8118 12.5373 65.769 12.5373C64.792 12.5373 63.9735 12.2454 63.3399 11.6617C62.7062 11.078 62.3234 10.2555 62.1649 9.19414L63.8943 8.80941C63.9735 9.47274 64.1055 9.93706 64.3036 10.1891C64.66 10.68 65.1616 10.9188 65.835 10.9188C66.3631 10.9188 66.8118 10.7463 67.1552 10.3881C67.5115 10.0299 67.6832 9.57887 67.6832 9.03494C67.6832 8.80941 67.6567 8.61041 67.5907 8.42468C67.5247 8.23895 67.4323 8.06649 67.3002 7.92056C67.1682 7.76136 67.0098 7.61543 66.7986 7.48276C66.5874 7.3501 66.3498 7.21743 66.0725 7.09803L64.977 6.64697C63.4323 5.99692 62.6534 5.02846 62.6534 3.76814C62.6534 2.91909 62.9834 2.2027 63.6303 1.63224C64.2771 1.04851 65.0824 0.769919 66.0461 0.769919C67.3796 0.756653 68.396 1.39344 69.122 2.66703ZM79.1947 2.58741H74.6666V5.32031H79.0627V6.92556H74.6666V10.7198H79.1947V12.325H72.9637V0.982169H79.1947V2.58741ZM79.2079 14.1824V23.7342H0V14.1824H79.2079ZM42.9703 16.756C42.231 16.756 41.637 17.0346 41.1749 17.5786C40.8051 18.0296 40.6071 18.5338 40.6071 19.1042C40.6071 19.741 40.8317 20.2849 41.2805 20.736C41.7292 21.1871 42.2706 21.4126 42.9174 21.4126C43.3399 21.4126 43.7492 21.3065 44.132 21.0809V20.2584C44.0264 20.3513 43.9208 20.4309 43.8152 20.4972C43.7094 20.5635 43.6172 20.6166 43.5248 20.6564C43.3531 20.736 43.1551 20.7758 42.9174 20.7758C42.4553 20.7758 42.0726 20.6166 41.7558 20.2849C41.4389 19.9665 41.2805 19.5685 41.2805 19.091C41.2805 18.6134 41.4389 18.2154 41.7558 17.8837C42.0726 17.552 42.4553 17.3928 42.9174 17.3928C43.3399 17.3928 43.736 17.552 44.132 17.8837V17.0877C43.7624 16.8622 43.3663 16.756 42.9703 16.756ZM74.0858 16.8357H71.6172V21.3197H74.0858V20.6829H72.2903V19.1838H74.033V18.547H72.2903V17.4724H74.0858V16.8357ZM67.0758 16.8357H64.3432V17.4724H65.3729V21.3197H66.0462V17.4724H67.0758V16.8357ZM58.1518 16.8357H57.3597V21.3197H58.0329V19.4889H58.1518L59.4323 21.3197H60.2508L58.8779 19.4094C59.1683 19.343 59.419 19.1971 59.5908 18.9716C59.7756 18.746 59.868 18.4674 59.868 18.149C59.868 17.7378 59.7228 17.4194 59.4323 17.1673C59.1683 16.9418 58.7459 16.8357 58.1518 16.8357ZM50.7327 16.5571L48.5279 21.3197H49.254L49.7426 20.2319H51.6568L52.1188 21.3197H52.8581L50.7327 16.5571ZM28.4224 16.5571L26.2177 21.3197H26.9438L27.4323 20.2319H29.3465L29.8086 21.3197H30.5479L28.4224 16.5571ZM20.5809 16.8357H19.9076V21.3197H21.901V20.6829H20.5809V16.8357ZM7.51155 16.5571L5.30693 21.3197H6.033L6.52145 20.2319H8.43564L8.89769 21.3197H9.63696L7.51155 16.5571ZM28.4092 18.0694L29.0693 19.5951H27.7227L28.4092 18.0694ZM50.7195 18.0694L51.3796 19.5951H50.0198L50.7195 18.0694ZM7.49832 18.0694L8.15839 19.5951H6.79865L7.49832 18.0694ZM58.2706 17.4725C58.8911 17.4725 59.2079 17.698 59.2079 18.1623C59.2079 18.6532 58.8911 18.892 58.2442 18.892H58.033V17.4725H58.2706ZM7.20779 15.5223L7.47182 16.1856L8.13188 16.4377L7.86785 15.7876L7.20779 15.5223Z" fill="white"/>
</svg>