<svg xmlns="http://www.w3.org/2000/svg" width="160" height="80" viewBox="0 0 160 80" fill="none">
  <path fill-rule="evenodd" clip-rule="evenodd" d="M3.40599 44.7907H4.67332C7.81497 44.7907 9.37299 43.5702 9.37299 41.1557C9.37299 38.8208 7.76243 37.6534 4.54131 37.6534H3.40599V44.7907ZM3.40599 47.9482V57.1551H5.28053e-05V34.4694H3.85457C5.75556 34.4694 7.18157 34.6021 8.1318 34.8674C9.10896 35.1327 9.95385 35.6369 10.6931 36.3533C11.9868 37.6268 12.6469 39.2453 12.6469 41.1823C12.6469 43.2518 11.9602 44.8969 10.5611 46.1174C9.18791 47.3379 7.31358 47.9482 4.96348 47.9482H3.40599ZM29.386 48.4522L26.0329 40.7311L22.5213 48.4522H29.386ZM30.7854 51.6627H21.122L18.6138 57.1816H14.9174L26.0857 33.0631L36.858 57.1816H33.1352L30.7854 51.6627ZM46.0989 44.8969H47.1816C50.4027 44.8969 52.013 43.6498 52.013 41.1822C52.013 38.8473 50.4553 37.7064 47.3136 37.7064H46.0989V44.8969ZM50.3499 47.4971L57.3466 57.1551H53.175L46.7325 47.8685H46.1255V57.1551H42.7193V34.4694H46.7064C49.6899 34.4694 51.8549 35.0266 53.175 36.1675C54.6272 37.4145 55.3664 39.0861 55.3664 41.1292C55.3664 42.7477 54.9173 44.1274 53.9932 45.2683C53.0691 46.4358 51.8549 47.1787 50.3499 47.4971ZM75.5907 48.4522L72.2375 40.7311L68.726 48.4522H75.5907ZM76.99 51.6627H67.3266L64.8184 57.1816H61.1487L72.317 33.0631L83.0887 57.1816H79.3662L76.99 51.6627ZM92.3035 53.9446H93.8351C95.3664 53.9446 96.6335 53.7854 97.6635 53.467C98.6668 53.1221 99.5909 52.5914 100.409 51.8485C102.099 50.3096 102.917 48.2931 102.917 45.8255C102.917 43.3314 102.099 41.3149 100.436 39.776C98.9569 38.3963 96.7394 37.7064 93.8351 37.7064H92.3035V53.9446ZM88.8978 57.1816V34.4959H93.6236C95.8945 34.4959 97.6896 34.7082 99.0097 35.1593C100.436 35.6103 101.703 36.3533 102.865 37.4146C105.188 39.5372 106.35 42.3497 106.35 45.8255C106.35 49.3013 105.135 52.1404 102.706 54.2895C101.492 55.3774 100.198 56.1203 98.8777 56.5449C97.6368 56.9694 95.8678 57.1816 93.5711 57.1816H88.8978ZM113.663 57.1551H117.069V34.4694H113.663V57.1551ZM138.244 37.8656L135.472 39.5107C134.944 38.6085 134.468 38.0248 133.993 37.7595C133.518 37.4411 132.884 37.2819 132.119 37.2819C131.168 37.2819 130.376 37.5472 129.769 38.0779C129.135 38.6085 128.845 39.2719 128.845 40.0678C128.845 41.1822 129.663 42.0578 131.3 42.7477L133.544 43.6763C135.366 44.4193 136.713 45.3214 137.558 46.4092C138.403 47.4705 138.825 48.7972 138.825 50.3626C138.825 52.4588 138.139 54.1834 136.739 55.5366C135.34 56.9163 133.624 57.6061 131.538 57.6061C129.584 57.6061 127.947 57.0224 126.68 55.855C125.412 54.6875 124.647 53.0425 124.33 50.9198L127.789 50.1504C127.947 51.477 128.211 52.4057 128.607 52.9098C129.32 53.8915 130.323 54.3691 131.67 54.3691C132.726 54.3691 133.624 54.0242 134.31 53.3078C135.023 52.5914 135.366 51.6893 135.366 50.6014C135.366 50.1504 135.313 49.7524 135.181 49.3809C135.049 49.0095 134.865 48.6645 134.6 48.3727C134.336 48.0543 134.02 47.7624 133.597 47.4971C133.175 47.2318 132.699 46.9664 132.145 46.7276L129.954 45.8255C126.865 44.5254 125.307 42.5885 125.307 40.0678C125.307 38.3697 125.967 36.937 127.261 35.796C128.554 34.6286 130.165 34.0714 132.092 34.0714C134.759 34.0449 136.792 35.3184 138.244 37.8656ZM158.389 37.7064H149.333V43.1722H158.125V46.3827H149.333V53.9711H158.389V57.1816H145.927V34.4959H158.389V37.7064ZM158.416 60.8963V80H0V60.8963H158.416ZM85.9406 66.0437C84.462 66.0437 83.2739 66.6009 82.3498 67.6887C81.6103 68.5908 81.2143 69.5991 81.2143 70.74C81.2143 72.0136 81.6634 73.1014 82.5611 74.0036C83.4585 74.9057 84.5412 75.3567 85.8347 75.3567C86.6799 75.3567 87.4983 75.1445 88.264 74.6934V73.0484C88.0528 73.2341 87.8416 73.3933 87.6304 73.526C87.4189 73.6586 87.2343 73.7648 87.0495 73.8444C86.7063 74.0036 86.3102 74.0832 85.8347 74.0832C84.9106 74.0832 84.1452 73.7648 83.5116 73.1014C82.8779 72.4646 82.5611 71.6686 82.5611 70.7135C82.5611 69.7583 82.8779 68.9623 83.5116 68.299C84.1452 67.6356 84.9106 67.3172 85.8347 67.3172C86.6799 67.3172 87.4719 67.6356 88.264 68.299V66.707C87.5247 66.2559 86.7327 66.0437 85.9406 66.0437ZM148.172 66.2029H143.234V75.171H148.172V73.8974H144.581V70.8992H148.066V69.6256H144.581V67.4764H148.172V66.2029ZM134.152 66.2029H128.686V67.4764H130.746V75.171H132.092V67.4764H134.152V66.2029ZM116.304 66.2029H114.719V75.171H116.066V71.5095H116.304L118.865 75.171H120.502L117.756 71.3503C118.337 71.2176 118.838 70.9257 119.182 70.4747C119.551 70.0236 119.736 69.4664 119.736 68.8296C119.736 68.0071 119.446 67.3703 118.865 66.8662C118.337 66.4151 117.492 66.2029 116.304 66.2029ZM101.465 65.6457L97.0558 75.171H98.508L99.4851 72.9953H103.314L104.238 75.171H105.716L101.465 65.6457ZM56.8449 65.6457L52.4354 75.171H53.8875L54.8647 72.9953H58.6931L59.6172 75.171H61.0957L56.8449 65.6457ZM41.1617 66.2029H39.8152V75.171H43.802V73.8974H41.1617V66.2029ZM15.0231 65.6457L10.6139 75.171H12.066L13.0429 72.9953H16.8713L17.7954 75.171H19.2739L15.0231 65.6457ZM56.8184 68.6704L58.1386 71.7217H55.4455L56.8184 68.6704ZM101.439 68.6704L102.759 71.7217H100.04L101.439 68.6704ZM14.9966 68.6704L16.3168 71.7217H13.5973L14.9966 68.6704ZM116.541 67.4765C117.782 67.4765 118.416 67.9276 118.416 68.8562C118.416 69.8379 117.782 70.3155 116.488 70.3155H116.066V67.4765H116.541ZM75.2046 11.9316C75.6013 11.932 75.9705 11.9356 76.3254 11.9679C74.2015 17.2769 73.1668 22.6591 72.7491 30.0846H71.9684V11.9316L75.2046 11.9316ZM76.9426 11.9863C77.5599 12.0409 78.0866 12.1322 78.5041 12.2418C79.2848 12.4607 79.9565 12.8621 80.5556 13.4459C81.5903 14.4493 82.1168 15.7444 82.1168 17.2953C82.1168 18.9737 81.5538 20.2874 80.4465 21.2542C79.3392 22.2214 77.8324 22.7138 75.9805 22.6955H75.2724C75.3814 17.1493 76.3256 13.6098 76.9426 11.9863ZM83.1514 11.1653C86.3287 13.6281 83.5508 17.0947 83.5508 17.0947C83.5508 17.0947 81.917 11.2017 77.4693 11.6578C77.4693 11.6578 79.9746 8.70229 83.1514 11.1653ZM76.1259 11.2747C76.1259 11.2747 71.7143 9.37734 66.867 13.0991C66.867 13.0991 67.0849 8.9942 70.7519 8.00903C74.4192 7.02386 76.3981 9.87006 76.1259 11.2747ZM76.7068 9.94289C76.7068 9.94289 72.5674 4.57925 68.3921 3.30195C68.4101 3.30195 76.0349 1.47754 76.7068 9.94289ZM86.8734 6.71372C86.8734 6.71372 81.8081 10.4538 77.8506 9.74219C77.8506 9.74219 79.7022 3.88583 86.8734 6.71372ZM78.486 0C78.486 0 78.4874 0.0117637 78.4921 0.0344468L78.5009 0.0765556C78.6661 0.861258 80.0875 7.44314 77.3058 8.86652C77.3058 8.86652 75.1817 5.25406 78.486 0Z" fill="white"/>
</svg>