<svg xmlns="http://www.w3.org/2000/svg" width="268" height="401" viewBox="0 0 268 401" fill="none">
    <path d="M124.076 150.35C124.076 150.35 65.2747 125.134 0.666626 174.614C0.666626 174.614 3.58736 120.056 52.4305 106.972C101.274 93.8874 127.701 131.694 124.076 150.35ZM223.03 227.726C223.03 227.726 260.049 181.632 217.716 148.904C175.383 116.176 141.988 155.464 141.988 155.464C201.247 149.398 223.03 227.726 223.03 227.726ZM21.0062 44.3371C76.6409 61.3006 131.818 132.505 131.818 132.505C122.845 20.1438 21.2173 44.4076 21.0062 44.4076V44.3371ZM267.333 89.6554C171.723 52.1664 147.055 130.001 147.055 130.001C199.804 139.453 267.298 89.7259 267.298 89.7259L267.333 89.6554ZM155.501 0.5C111.443 70.329 139.771 118.363 139.771 118.363C179.254 98.2253 155.29 0.5 155.501 0.5ZM181.611 283.025C196.391 270.153 203.886 252.695 203.886 230.371C204.431 211.154 196.883 192.594 183.089 179.234C175.486 171.648 166.074 166.136 155.747 163.223C148.912 161.474 141.944 160.295 134.915 159.696C126.681 181.279 114.118 228.291 112.675 302.034H122.106C146.809 302.422 166.902 295.862 181.647 283.025H181.611ZM109.754 159.202H68.6529V400.5H79.2098C84.7697 301.752 98.564 230.265 126.856 159.696C121.402 159.202 115.842 159.202 109.754 159.202Z" fill="url(#paint0_linear_319_378)"/>
    <defs>
        <linearGradient id="paint0_linear_319_378" x1="134" y1="0.5" x2="134" y2="400.5" gradientUnits="userSpaceOnUse">
        <stop stop-color="#FBFBFF"/>
        <stop offset="1" stop-color="#CACAFF" stop-opacity="0"/>
        </linearGradient>
    </defs>
</svg>