<svg width="24" height="36" viewBox="0 0 24 36" fill="none" xmlns="http://www.w3.org/2000/svg">
<g id="PALC_Marque_White">
<path id="Marque" d="M11.1069 13.4865C11.1069 13.4865 5.81473 11.2171 0 15.6703C0 15.6703 0.262866 10.76 4.65875 9.58244C9.05463 8.40487 11.4331 11.8074 11.1069 13.4865ZM20.0127 20.4504C20.0127 20.4504 23.3444 16.3019 19.5344 13.3564C15.7245 10.4109 12.7189 13.9467 12.7189 13.9467C18.0523 13.4008 20.0127 20.4504 20.0127 20.4504ZM1.83056 3.94534C6.83769 5.47205 11.8036 11.8804 11.8036 11.8804C10.996 1.76794 1.84956 3.95168 1.83056 3.95168V3.94534ZM24 8.02398C15.3951 4.64997 13.175 11.6551 13.175 11.6551C17.9224 12.5057 23.9968 8.03033 23.9968 8.03033L24 8.02398ZM13.9351 0C9.96991 6.28461 12.5194 10.6077 12.5194 10.6077C16.0728 8.79527 13.9161 0 13.9351 0ZM16.285 25.4273C17.6152 24.2687 18.2898 22.6976 18.2898 20.6884C18.3388 18.9589 17.6594 17.2885 16.4181 16.0861C15.7338 15.4033 14.8867 14.9073 13.9572 14.645C13.3421 14.4877 12.715 14.3815 12.0823 14.3276C11.3413 16.2701 10.2106 20.5011 10.0808 27.1381H10.9295C13.1528 27.173 14.9612 26.5826 16.2882 25.4273H16.285ZM9.81789 14.2832H6.11876V36H7.06888C7.56928 27.1127 8.81077 20.6789 11.3571 14.3276C10.8662 14.2832 10.3658 14.2832 9.81789 14.2832Z" fill="white"/>
</g>
</svg>
