<svg width="200" height="49" viewBox="0 0 200 49" fill="none" xmlns="http://www.w3.org/2000/svg">
<path d="M12.8701 20.3311C13.5836 20.3311 14.2428 20.3313 14.874 20.3867C11.5261 28.7519 9.90666 37.2555 9.24805 49H8.01367V20.3311H12.8701ZM200 49H35.3457V29.0566H200V49ZM124.671 34.4307C123.134 34.4307 121.899 35.0118 120.938 36.1475C120.17 37.0892 119.759 38.1419 119.759 39.333C119.759 40.6625 120.225 41.7985 121.158 42.7402C122.091 43.6818 123.216 44.1522 124.561 44.1523C125.439 44.1523 126.29 43.9308 127.086 43.46V41.7432C126.866 41.937 126.646 42.1027 126.427 42.2412C126.207 42.3797 126.015 42.4911 125.823 42.5742C125.467 42.7403 125.054 42.8232 124.561 42.8232C123.6 42.8231 122.805 42.4902 122.146 41.7979C121.488 41.1332 121.158 40.3027 121.158 39.3057C121.158 38.3085 121.488 37.4767 122.146 36.7842C122.805 36.0921 123.6 35.7599 124.561 35.7598C125.439 35.7598 126.263 36.0917 127.086 36.7842V35.123C126.318 34.6522 125.494 34.4307 124.671 34.4307ZM46.3779 43.959H47.8867L48.9023 41.6875H52.8818L53.8418 43.959H55.3789L50.9609 34.0146L46.3779 43.959ZM76.7285 43.959H80.873V42.6289H78.1289V34.5967H76.7285V43.959ZM89.8467 43.959H91.3555L92.3711 41.6875H96.3506L97.3105 43.959H98.8477L94.4297 34.0146L89.8467 43.959ZM136.224 43.959H137.733L138.749 41.6875H142.728L143.688 43.959H145.225L140.807 34.0146L136.224 43.959ZM154.583 43.959H155.982V40.1357H156.229L158.892 43.959H160.593L157.739 39.9697C158.343 39.8312 158.864 39.5264 159.221 39.0557C159.605 38.5849 159.797 38.0035 159.797 37.3389C159.797 36.4803 159.495 35.8153 158.892 35.2891C158.343 34.8182 157.464 34.5967 156.229 34.5967H154.583V43.959ZM169.1 35.9258H171.24V43.959H172.64V35.9258H174.78V34.5967H169.1V35.9258ZM184.221 43.959H189.353V42.6289H185.62V39.499H189.242V38.1699H185.62V35.9258H189.353V34.5967H184.221V43.959ZM52.3057 40.3574H49.4785L50.9326 37.1729L52.3057 40.3574ZM95.7734 40.3574H92.9746L94.4014 37.1729L95.7734 40.3574ZM142.151 40.3574H139.325L140.779 37.1729L142.151 40.3574ZM156.477 35.9258C157.766 35.9258 158.425 36.3968 158.425 37.3662C158.425 38.391 157.766 38.8896 156.422 38.8896H155.982V35.9258H156.477ZM15.8613 20.3867C16.8216 20.4975 17.6452 20.6356 18.3037 20.8018C19.5385 21.1618 20.5815 21.7993 21.5693 22.6855C23.1884 24.292 24.0117 26.3419 24.0117 28.7793C24.0117 31.4384 23.1068 33.5166 21.3779 35.04C19.6491 36.5635 17.2613 37.3382 14.3525 37.3105H13.2275C13.4197 28.5302 14.9009 22.9628 15.8613 20.3867ZM16.6572 19.8877C16.6749 19.8669 20.6203 15.2433 25.6035 19.1123C30.6255 22.9902 26.2344 28.4746 26.2344 28.4746C26.2175 28.4141 23.6321 19.1699 16.6572 19.8877ZM172.64 1.05273C175.411 1.02504 177.525 2.35454 179.034 5.01367L176.152 6.73047C175.604 5.78902 175.11 5.17933 174.616 4.90234C174.122 4.56995 173.463 4.4043 172.667 4.4043C171.679 4.40437 170.856 4.68144 170.225 5.23535C169.566 5.78927 169.265 6.4817 169.265 7.3125C169.265 8.47583 170.115 9.39018 171.816 10.1104L174.149 11.0801C176.043 11.8556 177.442 12.7971 178.32 13.9326C179.198 15.0405 179.638 16.4255 179.638 18.0596C179.638 20.2478 178.924 22.0483 177.47 23.4609C176.015 24.9013 174.231 25.6221 172.063 25.6221C170.033 25.622 168.332 25.0125 167.015 23.7939C165.697 22.5752 164.902 20.8575 164.572 18.6416L168.167 17.8379C168.332 19.2227 168.606 20.1924 169.018 20.7188C169.759 21.7436 170.802 22.2422 172.201 22.2422C173.299 22.2421 174.232 21.8826 174.945 21.1348C175.686 20.387 176.043 19.4451 176.043 18.3096C176.043 17.8387 175.988 17.4229 175.851 17.0352C175.713 16.6474 175.521 16.2871 175.247 15.9824C174.973 15.65 174.643 15.3454 174.204 15.0684C173.765 14.7914 173.271 14.5139 172.695 14.2646L170.417 13.3232C167.206 11.966 165.587 9.94389 165.587 7.3125C165.587 5.53978 166.274 4.04359 167.618 2.85254C168.963 1.63403 170.637 1.05279 172.64 1.05273ZM73.6553 25.1787H69.7861L67.3438 19.417H57.2998L54.6924 25.1787H50.8506L62.459 0L73.6553 25.1787ZM121.707 25.1787H117.838L115.368 19.417H105.324L102.717 25.1787H98.9023L110.511 0L121.707 25.1787ZM132.656 1.49609C135.016 1.49609 136.883 1.71759 138.255 2.18848C139.737 2.65937 141.054 3.43506 142.262 4.54297C144.676 6.75885 145.884 9.69487 145.884 13.3232C145.884 16.9518 144.621 19.9156 142.097 22.1592C140.834 23.2948 139.489 24.0705 138.117 24.5137C136.827 24.9568 134.989 25.1787 132.602 25.1787H127.744V1.49609H132.656ZM199.973 4.84766H190.56V10.5537H199.698V13.9053H190.56V21.8271H199.973V25.1787H187.02V1.49609H199.973V4.84766ZM39.3525 1.46777C41.3282 1.46778 42.8099 1.60683 43.7979 1.88379C44.8132 2.16077 45.6916 2.68672 46.46 3.43457C47.8046 4.76406 48.4902 6.45369 48.4902 8.47559C48.4902 10.636 47.7775 12.3538 46.3232 13.6279C44.8962 14.9021 42.9473 15.5391 40.5049 15.5391H38.8857V25.1514H35.3457V1.46777H39.3525ZM83.8916 1.46777C86.9924 1.4678 89.2422 2.05021 90.6143 3.24121C92.1236 4.54308 92.8926 6.28805 92.8926 8.4209C92.8925 10.1102 92.426 11.5503 91.4658 12.7412C90.5054 13.9599 89.2428 14.7359 87.6787 15.0684L94.9502 25.1514H90.6143L83.9189 15.4561H83.2881V25.1514H79.748V1.46777H83.8916ZM157.025 25.1514H153.485V1.46777H157.025V25.1514ZM6.12012 14.127C11.8824 12.5762 15.0108 17.0623 14.5723 19.2783C14.5723 19.2783 7.62892 16.2871 0 22.1592C0.00261809 22.1093 0.352207 15.6721 6.12012 14.127ZM131.284 21.7988H132.876C134.468 21.7988 135.785 21.6332 136.855 21.3008C137.898 20.9407 138.858 20.3867 139.709 19.6113C141.465 18.0048 142.316 15.8993 142.316 13.3232C142.316 10.7195 141.465 8.61436 139.736 7.00781C138.2 5.56756 135.895 4.84766 132.876 4.84766H131.284V21.7988ZM2.3877 6.67578C2.45196 6.66696 14.4363 3.8157 15.4775 17.1738C15.4775 17.1738 8.97377 8.69798 2.3877 6.67578ZM17.2891 16.8691C17.2891 16.8691 20.1977 7.61757 31.4766 12.0771C31.457 12.0917 23.5107 18.0031 17.2891 16.8691ZM58.7539 16.0654H65.8887L62.4043 8.00488L58.7539 16.0654ZM106.778 16.0654H113.913L110.428 8.00488L106.778 16.0654ZM18.2764 1.46777C18.2526 1.48249 21.0724 13.0751 16.4102 15.4834C16.3754 15.4232 13.1173 9.73344 18.2764 1.46777ZM83.2598 12.3535H84.3857C87.7334 12.3534 89.4072 11.0515 89.4072 8.47559C89.4071 6.03828 87.7879 4.84766 84.5225 4.84766H83.2598V12.3535ZM38.8857 12.2432H40.2031C43.4688 12.2432 45.0879 10.9689 45.0879 8.44824C45.0879 6.01071 43.4134 4.79199 40.0654 4.79199H38.8857V12.2432Z" fill="#111111"/>
</svg>
