<svg xmlns="http://www.w3.org/2000/svg" width="32" height="32" viewBox="0 0 20 20" fill="none">
  <path d="M4.20825 17.7916V2.20825H5.29159V4.20825H16.6953L14.7755 7.99992L16.6953 11.7916H5.29159V17.7916H4.20825ZM10.0043 9.29159C10.3646 9.29159 10.6692 9.16561 10.9183 8.91367C11.1671 8.66186 11.2916 8.35582 11.2916 7.99554C11.2916 7.63527 11.1656 7.33061 10.9137 7.08158C10.6619 6.8327 10.3558 6.70825 9.99554 6.70825C9.63527 6.70825 9.33061 6.83422 9.08159 7.08617C8.8327 7.33797 8.70825 7.64402 8.70825 8.00429C8.70825 8.36457 8.83422 8.66922 9.08617 8.91825C9.33797 9.16714 9.64402 9.29159 10.0043 9.29159Z" fill="#111111"/>
</svg>