<svg xmlns="http://www.w3.org/2000/svg" width="32" height="32" viewBox="0 0 32 32" fill="none">
  <path d="M4 30.6668V1.3335H6.03922V5.0982H27.5051L23.8914 12.2355L27.5051 19.3727H6.03922V30.6668H4ZM14.9102 14.6668C15.5884 14.6668 16.1618 14.4297 16.6306 13.9555C17.0991 13.4815 17.3333 12.9054 17.3333 12.2272C17.3333 11.5491 17.0962 10.9756 16.622 10.5068C16.148 10.0383 15.5719 9.80408 14.8937 9.80408C14.2156 9.80408 13.6421 10.0412 13.1733 10.5155C12.7048 10.9894 12.4706 11.5655 12.4706 12.2437C12.4706 12.9219 12.7077 13.4953 13.182 13.9641C13.6559 14.4326 14.232 14.6668 14.9102 14.6668Z" fill="#111111"/>
</svg>